o convex_0
v 0.114175 0.00192349 0.483123
v 0.114175 -0.0103965 0.483123
v -0.11418 0.00192349 0.483123
v 0.0107268 0.108189 0.497376
v 0.0411266 0.103117 0.497376
v 0.0555888 0.0969354 0.497376
v 0.055723 0.0968701 0.497376
v 0.0645746 0.0920596 0.497376
v 0.075684 0.0860085 0.497376
v 0.0860109 0.075691 0.497376
v 0.0920685 0.0645682 0.497376
v 0.0968744 0.0557091 0.497376
v 0.103111 0.0411254 0.497376
v 0.1032 0.0206211 0.908482
v 0.111605 -0.0220199 0.483123
v 0.1032 -0.0206269 0.908482
v -0.103205 0.0206211 0.908482
v -0.103004 0.0416043 0.497376
v -0.102333 0.0429974 0.497376
v -0.0897488 0.0682033 0.497376
v -0.0858594 0.0755386 0.497376
v -0.0755325 0.0858561 0.497376
v -0.0752195 0.0861173 0.497376
v -0.0414222 0.10303 0.497376
v -0.0412433 0.103117 0.497376
v -0.0407963 0.103204 0.497376
v -0.00992711 0.108189 0.497376
v -0.11418 -0.0103965 0.483123
v 0.0206291 0.103204 0.908482
v 0.0343761 0.0963259 0.911909
v 0.075684 0.075691 0.911909
v 0.075684 0.0860085 0.499066
v 0.0860109 0.075691 0.499066
v 0.0963156 0.0343777 0.911909
v 0.0877098 0.0360973 0.944572
v 0.0928956 0.0206211 0.939456
v 0.106955 -0.0413488 0.483123
v 0.0928956 -0.0206269 0.939456
v 0.0903027 -0.0322503 0.939456
v 0.0903027 -0.0425678 0.918761
v 0.075684 -0.0756968 0.908482
v 0.10662 -0.0427419 0.483123
v -0.100612 0.0257799 0.913599
v -0.100612 0.0464365 0.500802
v -0.103205 -0.0206269 0.908482
v -0.0928782 0.0206211 0.939456
v -0.0903076 0.0257799 0.944572
v -0.0903076 0.0670714 0.500802
v -0.0756889 0.075691 0.908482
v -0.0206117 0.103204 0.908482
v -0.114158 -0.0105053 0.483123
v 0.0206291 0.0928868 0.939456
v 0.0360972 0.087728 0.944572
v 0.0464466 0.087728 0.923969
v 0.0670558 0.0774106 0.923969
v 0.0567512 0.0774106 0.944572
v 0.065357 0.075691 0.932512
v 0.075684 0.0653518 0.932512
v 0.0774051 0.0567539 0.944572
v 0.0774051 0.0670714 0.923969
v 0.0877098 0.0464365 0.923969
v 0.0825463 0.0206211 0.949826
v 0.0894309 0.017182 0.946308
v 0.0894309 -0.024066 0.946308
v 0.0799757 -0.0528852 0.939456
v 0.0877098 -0.0335128 0.944572
v 0.0774051 -0.0541694 0.944572
v 0.0799757 -0.0632026 0.918761
v 0.075684 -0.0653576 0.929131
v 0.065357 -0.0756968 0.929131
v 0.0567512 -0.0799848 0.934248
v 0.0670558 -0.0799848 0.913599
v 0.0621382 -0.0973765 0.483123
v 0.0762875 -0.0898452 0.483123
v 0.077584 -0.0890615 0.483123
v 0.0778522 -0.0888656 0.483123
v 0.0888274 -0.0778734 0.483123
v 0.089185 -0.0773075 0.483123
v 0.089945 -0.0759797 0.483123
v 0.0934097 -0.069145 0.483123
v -0.0903076 0.0360973 0.934248
v -0.0967676 0.0309603 0.918761
v -0.0903076 0.0464365 0.913599
v -0.0997629 -0.0275052 0.911909
v -0.0903076 -0.0309443 0.940735
v -0.0928782 -0.0206269 0.939456
v -0.111923 -0.0208445 0.483123
v -0.106983 -0.0413053 0.483123
v -0.106625 -0.0427201 0.483123
v -0.103496 -0.050382 0.483123
v -0.0894359 0.0206211 0.946308
v -0.0838477 0.0309603 0.947131
v -0.0799807 0.0464365 0.944572
v -0.0864183 0.0412778 0.939456
v -0.0799807 0.0670714 0.913599
v -0.0799807 0.0567539 0.934248
v -0.0756889 0.0653518 0.929131
v -0.065362 0.075691 0.929131
v -0.0528668 0.0799791 0.939456
v -0.0632161 0.0799791 0.918761
v -0.0425621 0.0902965 0.918761
v -0.0322575 0.0902965 0.939456
v -0.0206117 0.0928868 0.939456
v 0.0171868 0.0894258 0.946308
v 0.0206291 0.0825475 0.949826
v 0.0412607 0.0722301 0.949826
v 0.0722416 0.0412778 0.949826
v 0.0825463 -0.0206269 0.949826
v 0.0791263 -0.0447009 0.946308
v 0.0567512 -0.0748261 0.944572
v 0.0722416 -0.0528852 0.947131
v 0.0309561 -0.096767 0.918761
v 0.0464466 -0.0903023 0.913599
v 0.0412607 -0.0864278 0.939456
v 0.0434289 -0.106366 0.483123
v 0.0257926 -0.10062 0.913599
v -0.0791089 -0.0687967 0.911909
v -0.0894359 -0.0378444 0.932512
v -0.0877147 -0.036103 0.942014
v -0.0877147 -0.0257856 0.947131
v -0.0894359 -0.0206269 0.946308
v -0.09185 -0.07241 0.483123
v -0.0825512 0.0206211 0.949826
v -0.0722243 0.0412778 0.949826
v -0.0735207 0.0515735 0.947131
v -0.0748172 0.0567539 0.944572
v -0.0541632 0.0774106 0.944572
v -0.0335093 0.087728 0.944572
v -0.0240764 0.0894258 0.946308
v -0.0206117 0.0825475 0.949826
v 0.0722416 -0.0412618 0.949826
v 0.0515877 -0.0735201 0.947131
v 0.0464466 -0.0799848 0.944572
v 0.0412607 -0.0722358 0.949826
v 0.0360972 -0.0903023 0.934248
v 0.0257926 -0.0903023 0.944572
v 0.0429148 -0.10654 0.483123
v 0.0206291 -0.10321 0.908482
v -0.0756889 -0.0756968 0.904965
v -0.0774101 -0.0670771 0.921365
v -0.0774101 -0.0567597 0.942014
v -0.0791089 -0.0584575 0.932512
v -0.0774101 -0.0464422 0.947131
v -0.0825512 -0.0206269 0.949826
v -0.0909559 -0.0739337 0.483123
v -0.0412657 0.0722301 0.949826
v -0.0632161 0.0619127 0.947131
v -0.0528668 0.0722301 0.947131
v -0.044708 0.0791084 0.946308
v 0.0309561 -0.0838375 0.947131
v 0.0206291 -0.0825533 0.949826
v 0.0206291 -0.0928925 0.939456
v 0.0206291 -0.0894316 0.946308
v 0.0410819 -0.106997 0.483123
v -0.0206117 -0.10321 0.908482
v 0.0103468 -0.11418 0.483123
v 0.015868 -0.113027 0.483123
v -0.0688043 -0.0791141 0.911909
v -0.0670608 -0.0773946 0.921365
v -0.0882065 -0.0770898 0.483123
v -0.0772313 -0.0880603 0.483123
v -0.0739231 -0.0909335 0.483123
v -0.0737666 -0.0910423 0.483123
v -0.0724031 -0.0918259 0.483123
v -0.0567561 -0.0773946 0.942014
v -0.0464292 -0.0773946 0.947131
v -0.0412657 -0.0722358 0.949826
v -0.0722243 -0.0412618 0.949826
v -0.0206117 -0.0825533 0.949826
v -0.0206117 -0.0928925 0.939456
v -0.0206117 -0.0894316 0.946308
v -0.0309611 -0.0903023 0.940735
v -0.0274964 -0.0997708 0.911909
v -0.0501621 -0.103558 0.483123
v -0.0434563 -0.106301 0.483123
v -0.0426963 -0.106606 0.483123
v -0.0413104 -0.106954 0.483123
v -0.0208353 -0.111938 0.483123
v -0.0103518 -0.11418 0.483123
v -0.0503409 -0.103471 0.483123
v -0.0378457 -0.0894316 0.932512
v -0.0584773 -0.0791141 0.932512
v -0.0361022 -0.087712 0.942014
v -0.0257752 -0.087712 0.947131
f 1 2 15
f 1 15 37
f 1 37 42
f 1 42 80
f 1 80 79
f 1 79 78
f 1 78 77
f 1 77 76
f 1 76 75
f 1 75 74
f 1 74 73
f 1 73 115
f 1 115 137
f 1 137 154
f 1 154 157
f 1 157 156
f 1 156 179
f 1 179 178
f 1 178 177
f 1 177 176
f 1 176 175
f 1 175 174
f 1 174 180
f 1 180 164
f 1 164 163
f 1 163 162
f 1 162 161
f 1 161 160
f 1 160 145
f 1 145 122
f 1 122 90
f 1 90 89
f 1 89 88
f 1 88 87
f 1 87 51
f 1 51 28
f 1 28 3
f 1 3 27
f 1 27 4
f 1 4 5
f 1 5 6
f 1 6 7
f 1 7 8
f 1 8 9
f 1 9 10
f 1 10 11
f 1 11 12
f 1 12 13
f 1 13 14
f 1 14 16
f 1 16 2
f 2 16 15
f 3 17 18
f 3 18 19
f 3 19 20
f 3 20 21
f 3 21 22
f 3 22 23
f 3 23 24
f 3 24 25
f 3 25 26
f 3 26 27
f 3 28 45
f 3 45 17
f 4 27 50
f 4 50 29
f 4 29 5
f 5 29 6
f 6 29 7
f 7 29 30
f 7 30 31
f 7 31 32
f 7 32 8
f 8 32 9
f 9 32 33
f 9 33 10
f 10 33 11
f 11 33 12
f 12 33 31
f 12 31 34
f 12 34 14
f 12 14 13
f 14 34 35
f 14 35 36
f 14 36 38
f 14 38 16
f 15 16 37
f 16 38 39
f 16 39 40
f 16 40 41
f 16 41 42
f 16 42 37
f 17 43 44
f 17 44 18
f 17 45 86
f 17 86 46
f 17 46 47
f 17 47 43
f 18 44 19
f 19 44 20
f 20 44 48
f 20 48 21
f 21 48 49
f 21 49 22
f 22 49 23
f 23 49 24
f 24 49 50
f 24 50 25
f 25 50 26
f 26 50 27
f 28 51 45
f 29 50 103
f 29 103 52
f 29 52 53
f 29 53 30
f 30 53 54
f 30 54 31
f 31 33 32
f 31 54 55
f 31 55 56
f 31 56 57
f 31 57 58
f 31 58 59
f 31 59 60
f 31 60 34
f 34 60 61
f 34 61 35
f 35 61 59
f 35 59 107
f 35 107 62
f 35 62 63
f 35 63 36
f 36 63 64
f 36 64 38
f 38 64 39
f 39 65 68
f 39 68 40
f 39 64 66
f 39 66 67
f 39 67 65
f 40 68 41
f 41 68 65
f 41 65 69
f 41 69 70
f 41 70 71
f 41 71 72
f 41 72 73
f 41 73 74
f 41 74 75
f 41 75 76
f 41 76 77
f 41 77 78
f 41 78 79
f 41 79 80
f 41 80 42
f 43 81 82
f 43 82 83
f 43 83 44
f 43 47 81
f 44 83 48
f 45 84 85
f 45 85 86
f 45 51 87
f 45 87 88
f 45 88 89
f 45 89 90
f 45 90 84
f 46 91 47
f 46 86 121
f 46 121 91
f 47 91 92
f 47 92 93
f 47 93 94
f 47 94 81
f 48 83 95
f 48 95 49
f 49 95 96
f 49 96 97
f 49 97 98
f 49 98 99
f 49 99 100
f 49 100 101
f 49 101 50
f 50 101 102
f 50 102 103
f 52 103 129
f 52 129 104
f 52 104 53
f 53 56 54
f 53 104 105
f 53 105 56
f 54 56 55
f 56 105 106
f 56 106 107
f 56 107 59
f 56 59 57
f 57 59 58
f 59 61 60
f 62 108 64
f 62 64 63
f 62 107 106
f 62 106 105
f 62 105 130
f 62 130 146
f 62 146 124
f 62 124 123
f 62 123 144
f 62 144 168
f 62 168 167
f 62 167 169
f 62 169 151
f 62 151 134
f 62 134 131
f 62 131 108
f 64 109 67
f 64 67 66
f 64 108 131
f 64 131 109
f 65 67 69
f 67 110 70
f 67 70 69
f 67 109 111
f 67 111 110
f 70 110 71
f 71 112 113
f 71 113 72
f 71 110 114
f 71 114 112
f 72 113 73
f 73 113 116
f 73 116 115
f 81 94 82
f 82 94 96
f 82 96 95
f 82 95 83
f 84 117 118
f 84 118 119
f 84 119 85
f 84 90 117
f 85 119 120
f 85 120 121
f 85 121 86
f 90 122 117
f 91 123 92
f 91 121 144
f 91 144 123
f 92 123 124
f 92 124 125
f 92 125 126
f 92 126 93
f 93 126 94
f 94 126 96
f 96 126 97
f 97 126 98
f 98 126 127
f 98 127 99
f 99 102 100
f 99 127 102
f 100 102 101
f 102 127 128
f 102 128 129
f 102 129 103
f 104 129 130
f 104 130 105
f 109 131 111
f 110 111 132
f 110 132 133
f 110 133 114
f 111 131 134
f 111 134 132
f 112 114 135
f 112 135 116
f 112 116 113
f 114 133 136
f 114 136 135
f 115 116 138
f 115 138 137
f 116 135 136
f 116 136 152
f 116 152 138
f 117 122 139
f 117 139 140
f 117 140 141
f 117 141 142
f 117 142 118
f 118 142 141
f 118 141 119
f 119 141 143
f 119 143 120
f 120 143 144
f 120 144 121
f 122 145 139
f 124 146 147
f 124 147 125
f 125 147 126
f 126 147 127
f 127 147 148
f 127 148 149
f 127 149 129
f 127 129 128
f 129 149 146
f 129 146 130
f 132 134 151
f 132 151 150
f 132 150 133
f 133 150 136
f 136 150 153
f 136 153 152
f 137 138 154
f 138 152 170
f 138 170 155
f 138 155 179
f 138 179 156
f 138 156 157
f 138 157 154
f 139 158 159
f 139 159 140
f 139 145 160
f 139 160 161
f 139 161 162
f 139 162 163
f 139 163 164
f 139 164 158
f 140 159 165
f 140 165 141
f 141 165 166
f 141 166 143
f 143 166 167
f 143 167 168
f 143 168 144
f 146 149 148
f 146 148 147
f 150 151 153
f 151 169 171
f 151 171 153
f 152 153 171
f 152 171 170
f 155 170 172
f 155 172 173
f 155 173 174
f 155 174 175
f 155 175 176
f 155 176 177
f 155 177 178
f 155 178 179
f 158 164 180
f 158 180 173
f 158 173 181
f 158 181 182
f 158 182 165
f 158 165 159
f 165 183 184
f 165 184 166
f 165 182 181
f 165 181 183
f 166 184 169
f 166 169 167
f 169 184 171
f 170 171 172
f 171 184 172
f 172 184 183
f 172 183 173
f 173 183 181
f 173 180 174
o convex_1
v -0.0310114 -0.268429 -0.898072
v 0.000502157 -0.268429 -0.898072
v -0.0413316 -0.268429 -0.887833
v -0.0516519 -0.258081 -0.918829
v -0.0310114 -0.258081 -0.929067
v 0.000528481 -0.268403 -0.898072
v 0.000528481 -0.268429 -0.897651
v 0.000528481 -0.258081 -0.929067
v -0.0826389 -0.258081 -0.877455
v -0.0722923 -0.258081 -0.898072
v -0.0929591 -0.24776 -0.918829
v -0.0516519 -0.268429 -0.856838
v -0.0671322 -0.252921 -0.923878
v -0.0464917 -0.252921 -0.934256
v -0.0344339 -0.251174 -0.942812
v 0.000528481 -0.268429 -0.124025
v 0.000528481 -0.251174 -0.942812
v -0.103279 -0.24776 -0.898072
v -0.1136 -0.24776 -0.867076
v -0.108439 -0.242573 -0.913499
v -0.11876 -0.232252 -0.934256
v -0.104991 -0.239159 -0.93075
v -0.087799 -0.242573 -0.934256
v -0.0516519 -0.268429 -0.196254
v -0.0757412 -0.240853 -0.942812
v -0.0413316 -0.237439 -0.949684
v -0.0310114 -0.268429 -0.124025
v 0.000528481 -0.258081 -0.0517955
v 0.000528481 -0.237439 -0.949684
v -0.117048 -0.240853 -0.901438
v -0.1136 -0.24776 -0.186016
v -0.120471 -0.24432 -0.18251
v -0.127369 -0.240853 -0.870442
v -0.127369 -0.230558 -0.922195
v -0.160014 -0.211636 -0.923878
v -0.149694 -0.211636 -0.934256
v -0.11876 -0.22193 -0.944495
v -0.106728 -0.230558 -0.942812
v -0.0413316 -0.268429 -0.15502
v -0.0826389 -0.258081 -0.165259
v -0.103279 -0.21677 -0.949684
v -0.0310114 -0.258081 -0.0517955
v -0.0619721 -0.258081 -0.082791
v 0.000528481 -0.24776 0.0101955
v 0.000528481 -0.216743 -0.949684
v -0.158277 -0.220237 -0.891199
v -0.103279 -0.24776 -0.113646
v -0.158277 -0.220237 -0.158527
v -0.127369 -0.240853 -0.189382
v -0.110151 -0.24432 -0.11028
v -0.168623 -0.209915 -0.106914
v -0.178943 -0.209915 -0.860204
v -0.168623 -0.209915 -0.911816
v -0.168623 -0.199568 -0.932433
v -0.149694 -0.201314 -0.944495
v -0.0929591 -0.24776 -0.0724125
v -0.134187 -0.196127 -0.949684
v -0.0310114 -0.24776 0.0101955
v -0.0413316 -0.24776 -0.000183065
v 0.000528481 -0.247734 0.0103358
v -0.215986 0.00193492 -0.949684
v -0.184999 0.00193492 -0.939446
v 0.000528481 -0.185753 -0.939446
v -0.0998305 -0.24432 -0.0689062
v -0.178943 -0.209915 -0.19962
v -0.120471 -0.233972 -0.0689062
v -0.141085 -0.223651 -0.0792848
v -0.147956 -0.220237 -0.0861571
v -0.151405 -0.213329 -0.0585276
v -0.158277 -0.209915 -0.0655402
v -0.168623 -0.199568 -0.0551615
v -0.178943 -0.199568 -0.0965357
v -0.209904 -0.178925 -0.860204
v -0.209904 -0.168604 -0.911816
v -0.199584 -0.168604 -0.932433
v -0.201295 -0.149682 -0.944495
v -0.196135 -0.1342 -0.949684
v -0.144534 -0.185806 -0.949684
v -0.0722923 -0.237439 0.0101955
v -0.0929591 -0.237439 -0.0208
v -0.0310114 -0.237439 0.0515697
v -0.0413316 -0.234872 0.0528319
v -0.0413316 -0.245166 0.0114578
v -0.0722923 -0.234872 0.0218364
v 0.000528481 -0.227118 0.0928035
v -0.237442 0.00193492 -0.949684
v -0.176284 0.00193492 -0.935098
v -0.171282 0.00193492 -0.932573
v 0.000528481 -0.172018 -0.932433
v -0.0998305 -0.233972 -0.017434
v -0.209904 -0.178925 -0.19962
v -0.199584 -0.178925 -0.0965357
v -0.120471 -0.213329 0.0239402
v -0.151405 -0.192713 0.0341785
v -0.158277 -0.189246 0.0274464
v -0.199584 -0.168604 -0.0551615
v -0.168623 -0.178925 0.0274464
v -0.240891 -0.127372 -0.870442
v -0.220224 -0.158283 -0.891199
v -0.230571 -0.127372 -0.922195
v -0.211642 -0.160003 -0.923878
v -0.211642 -0.149682 -0.934256
v -0.221962 -0.118771 -0.944495
v -0.216802 -0.103262 -0.949684
v -0.0929591 -0.234872 -0.00915914
v -0.0206912 -0.227118 0.0928035
v -0.0310114 -0.21677 0.123659
v -0.0413316 -0.214203 0.125061
v -0.0826389 -0.227118 0.0411911
v -0.0826389 -0.203881 0.125061
v 0.000528481 -0.114192 0.483123
v -0.237442 -0.041335 -0.949684
v -0.242892 0.00193492 -0.947019
v -0.140401 0.00193492 -0.901578
v 0.000528481 -0.141028 -0.901438
v -0.0895103 -0.223651 0.0445571
v -0.209904 -0.168604 -0.106914
v -0.220224 -0.158283 -0.158527
v -0.240891 -0.127372 -0.189382
v -0.110151 -0.213329 0.0445571
v -0.108439 -0.211636 0.0540942
v -0.11876 -0.211636 0.033337
v -0.141085 -0.192713 0.0549357
v -0.149694 -0.190967 0.0437156
v -0.12908 -0.170324 0.147081
v -0.137636 -0.168604 0.130671
v -0.0772681 -0.0880982 0.483123
v -0.209904 -0.158283 -0.0655402
v -0.189264 -0.158283 0.0274464
v -0.240891 -0.117051 -0.901438
v -0.247763 -0.113584 -0.867076
v -0.232282 -0.118771 -0.934256
v -0.230571 -0.106703 -0.942812
v -0.0103973 -0.114192 0.483123
v -0.0105289 -0.114166 0.483123
v -0.0208755 -0.111969 0.483123
v -0.0413316 -0.106994 0.483123
v -0.0427533 -0.106624 0.483123
v -0.0435168 -0.106332 0.483123
v -0.0501775 -0.10358 0.483123
v -0.087799 -0.201314 0.126324
v 0.000528481 0.000294108 0.483123
v -0.251211 -0.0447489 -0.942812
v -0.251211 0.00193492 -0.942812
v -0.140269 0.00193492 -0.901438
v 0.000528481 0.00193492 -0.725703
v -0.213353 -0.161723 -0.0999017
v -0.240891 -0.117051 -0.117153
v -0.244314 -0.120465 -0.18251
v -0.247763 -0.113584 -0.186016
v -0.139347 -0.190967 0.0643325
v -0.12908 -0.180645 0.116085
v -0.0739773 -0.0909828 0.483123
v -0.087641 -0.0776975 0.483123
v -0.213353 -0.151402 -0.0585276
v -0.0882202 -0.0771153 0.483123
v -0.168623 -0.137614 0.130671
v -0.170335 -0.129066 0.147081
v -0.190975 -0.149682 0.0437156
v -0.192713 -0.151402 0.0341785
v -0.247763 -0.103262 -0.898072
v -0.242602 -0.10845 -0.913499
v -0.258083 -0.08262 -0.877455
v -0.252923 -0.0568168 -0.934256
v -0.240891 -0.106703 -0.922195
v -0.247763 -0.0929412 -0.918829
v -0.239154 -0.104983 -0.93075
v -0.0503618 -0.103501 0.483123
v -0.0724503 -0.0918562 0.483123
v 0.000502157 0.00193492 0.483123
v 0.000528481 0.00193492 0.482982
v -0.258083 -0.041335 -0.929067
v -0.257951 0.00193492 -0.929348
v -0.223673 -0.141081 -0.0792848
v -0.244314 -0.110143 -0.11028
v -0.247763 -0.103262 -0.113646
v -0.258083 -0.08262 -0.165259
v -0.233993 -0.120465 -0.0689062
v -0.213353 -0.120465 0.0239402
v -0.0909846 -0.073966 0.483123
v -0.180655 -0.129066 0.116085
v -0.192713 -0.141081 0.0549357
v -0.190975 -0.139334 0.0643325
v -0.268377 -0.041335 -0.887833
v -0.258083 -0.0722723 -0.898072
v -0.268377 -0.0516562 -0.856838
v -0.256372 -0.0705785 -0.906767
v -0.114205 0.00193492 0.483123
v -0.258083 0.00193492 -0.929067
v -0.268377 -0.0310137 -0.898072
v -0.268192 0.00193492 -0.898633
v -0.244314 -0.0998485 -0.0689062
v -0.247763 -0.0929412 -0.0724125
v -0.268377 -0.0516562 -0.196254
v -0.258083 -0.0619775 -0.082791
v -0.233993 -0.0998485 -0.017434
v -0.211642 -0.118771 0.033337
v -0.211642 -0.0981018 0.0747111
v -0.213353 -0.0998485 0.065174
v -0.0918797 -0.072431 0.483123
v -0.201295 -0.0877806 0.126324
v -0.114205 -0.0103977 0.483123
v -0.227122 0.00193492 0.0928035
v -0.268377 0.00193492 -0.898072
v -0.237442 -0.0929412 -0.0208
v -0.237442 -0.0722723 0.0101955
v -0.247763 -0.041335 -0.000183065
v -0.268377 -0.041335 -0.15502
v -0.247763 -0.0310137 0.0101955
v -0.258083 -0.0310137 -0.0517955
v -0.268377 -0.0310137 -0.124025
v -0.234862 -0.0929412 -0.00915914
v -0.223673 -0.0895008 0.0445571
v -0.214222 -0.0929412 0.0734488
v -0.103516 -0.0503859 0.483123
v -0.203875 -0.08262 0.125061
v -0.103595 -0.0502006 0.483123
v -0.114179 -0.01053 0.483123
v -0.227122 -0.020666 0.0928035
v -0.216802 -0.0310137 0.123659
v -0.227622 0.00193492 0.09084
v -0.268377 0.00193492 -0.124025
v -0.234862 -0.0722723 0.0218364
v -0.245182 -0.041335 0.0114578
v -0.237442 -0.0310137 0.0515697
v -0.247763 0.00193492 0.0101955
v -0.258083 0.00193492 -0.0517955
v -0.227122 -0.08262 0.0411911
v -0.214222 -0.041335 0.125061
v -0.234862 -0.041335 0.0528319
v -0.106649 -0.0427376 0.483123
v -0.111967 -0.0208777 0.483123
v -0.106991 -0.041335 0.483123
f 185 186 191
f 185 191 200
f 185 200 211
f 185 211 223
f 185 223 208
f 185 208 196
f 185 196 187
f 185 187 188
f 185 188 189
f 185 189 192
f 185 192 186
f 186 190 191
f 186 192 190
f 187 193 194
f 187 194 195
f 187 195 188
f 187 196 193
f 188 197 198
f 188 198 189
f 188 195 197
f 189 198 199
f 189 199 201
f 189 201 192
f 190 192 201
f 190 201 213
f 190 213 229
f 190 229 247
f 190 247 273
f 190 273 299
f 190 299 330
f 190 330 355
f 190 355 326
f 190 326 295
f 190 295 269
f 190 269 244
f 190 244 228
f 190 228 212
f 190 212 200
f 190 200 191
f 193 202 195
f 193 195 194
f 193 196 203
f 193 203 202
f 195 202 204
f 195 204 205
f 195 205 206
f 195 206 207
f 195 207 197
f 196 208 215
f 196 215 203
f 197 207 198
f 198 207 209
f 198 209 199
f 199 209 210
f 199 210 213
f 199 213 201
f 200 212 226
f 200 226 211
f 202 214 204
f 202 203 217
f 202 217 214
f 203 215 216
f 203 216 217
f 204 214 218
f 204 218 205
f 205 207 206
f 205 218 219
f 205 219 220
f 205 220 239
f 205 239 221
f 205 221 222
f 205 222 207
f 207 222 209
f 208 223 224
f 208 224 215
f 209 222 210
f 210 225 241
f 210 241 262
f 210 262 261
f 210 261 288
f 210 288 296
f 210 296 270
f 210 270 245
f 210 245 229
f 210 229 213
f 210 222 225
f 211 226 227
f 211 227 223
f 212 228 242
f 212 242 226
f 214 217 230
f 214 230 218
f 215 224 231
f 215 231 216
f 216 232 233
f 216 233 217
f 216 231 234
f 216 234 235
f 216 235 232
f 217 233 249
f 217 249 236
f 217 236 230
f 218 230 237
f 218 237 219
f 219 238 220
f 219 237 238
f 220 238 239
f 221 239 225
f 221 225 222
f 223 227 224
f 224 227 240
f 224 240 231
f 225 239 241
f 226 242 227
f 227 242 243
f 227 243 240
f 228 244 242
f 229 245 246
f 229 246 247
f 230 236 237
f 231 240 248
f 231 248 234
f 232 249 233
f 232 235 249
f 234 248 250
f 234 250 251
f 234 251 252
f 234 252 235
f 235 252 253
f 235 253 254
f 235 254 255
f 235 255 256
f 235 256 249
f 236 249 275
f 236 275 257
f 236 257 258
f 236 258 237
f 237 258 259
f 237 259 238
f 238 259 239
f 239 260 261
f 239 261 262
f 239 262 241
f 239 259 260
f 240 243 263
f 240 263 264
f 240 264 248
f 242 244 265
f 242 265 266
f 242 266 267
f 242 267 243
f 243 267 268
f 243 268 263
f 244 269 265
f 245 270 297
f 245 297 328
f 245 328 357
f 245 357 373
f 245 373 375
f 245 375 388
f 245 388 406
f 245 406 411
f 245 411 410
f 245 410 405
f 245 405 387
f 245 387 372
f 245 372 354
f 245 354 355
f 245 355 330
f 245 330 329
f 245 329 298
f 245 298 272
f 245 272 271
f 245 271 246
f 246 271 247
f 247 271 272
f 247 272 273
f 248 264 274
f 248 274 250
f 249 256 276
f 249 276 275
f 250 274 277
f 250 277 253
f 250 253 251
f 251 253 252
f 253 277 278
f 253 278 279
f 253 279 254
f 254 279 255
f 255 280 276
f 255 276 256
f 255 279 281
f 255 281 313
f 255 313 280
f 257 275 303
f 257 303 282
f 257 282 283
f 257 283 258
f 258 283 284
f 258 284 285
f 258 285 259
f 259 285 286
f 259 286 260
f 260 287 261
f 260 286 287
f 261 287 288
f 263 268 289
f 263 289 264
f 264 289 274
f 265 269 290
f 265 290 291
f 265 291 292
f 265 292 266
f 266 293 268
f 266 268 267
f 266 292 294
f 266 294 293
f 268 293 289
f 269 295 318
f 269 318 290
f 270 296 297
f 272 298 273
f 273 298 299
f 274 289 300
f 274 300 277
f 275 276 301
f 275 301 302
f 275 302 303
f 276 280 312
f 276 312 301
f 277 300 304
f 277 304 305
f 277 305 306
f 277 306 278
f 278 306 305
f 278 305 307
f 278 307 308
f 278 308 279
f 279 308 309
f 279 309 310
f 279 310 311
f 279 311 281
f 280 313 312
f 281 311 313
f 282 314 283
f 282 303 334
f 282 334 315
f 282 315 345
f 282 345 314
f 283 314 284
f 284 316 285
f 284 314 346
f 284 346 316
f 285 316 286
f 286 316 287
f 287 316 317
f 287 317 288
f 288 317 296
f 289 293 300
f 290 318 291
f 291 318 319
f 291 319 292
f 292 319 320
f 292 320 321
f 292 321 294
f 293 294 300
f 294 321 322
f 294 322 323
f 294 323 324
f 294 324 325
f 294 325 300
f 295 326 354
f 295 354 372
f 295 372 386
f 295 386 402
f 295 402 416
f 295 416 417
f 295 417 415
f 295 415 401
f 295 401 399
f 295 399 384
f 295 384 364
f 295 364 340
f 295 340 338
f 295 338 311
f 295 311 337
f 295 337 353
f 295 353 352
f 295 352 324
f 295 324 323
f 295 323 322
f 295 322 321
f 295 321 320
f 295 320 319
f 295 319 318
f 296 317 327
f 296 327 297
f 297 327 328
f 298 329 299
f 299 329 330
f 300 305 304
f 300 325 305
f 301 312 339
f 301 339 331
f 301 331 303
f 301 303 302
f 303 331 332
f 303 332 359
f 303 359 333
f 303 333 334
f 305 325 335
f 305 335 307
f 307 335 308
f 308 335 336
f 308 336 309
f 309 336 337
f 309 337 311
f 309 311 310
f 311 338 313
f 312 313 339
f 313 338 340
f 313 340 341
f 313 341 342
f 313 342 343
f 313 343 344
f 313 344 339
f 314 345 346
f 315 334 361
f 315 361 347
f 315 347 345
f 316 348 327
f 316 327 317
f 316 346 349
f 316 349 350
f 316 350 351
f 316 351 348
f 324 352 325
f 325 336 335
f 325 352 353
f 325 353 337
f 325 337 336
f 326 355 354
f 327 348 356
f 327 356 357
f 327 357 328
f 331 339 358
f 331 358 332
f 332 358 359
f 333 359 360
f 333 360 334
f 334 360 361
f 339 362 358
f 339 344 363
f 339 363 362
f 340 364 342
f 340 342 341
f 342 364 365
f 342 365 343
f 343 366 344
f 343 365 367
f 343 367 366
f 344 366 363
f 345 347 350
f 345 350 346
f 346 350 349
f 347 368 369
f 347 369 350
f 347 361 378
f 347 378 370
f 347 370 368
f 348 351 350
f 348 350 371
f 348 371 356
f 350 369 371
f 356 373 357
f 356 371 368
f 356 368 374
f 356 374 375
f 356 375 373
f 358 362 359
f 359 362 376
f 359 376 360
f 360 376 377
f 360 377 379
f 360 379 361
f 361 379 392
f 361 392 378
f 362 363 380
f 362 380 376
f 363 366 381
f 363 381 382
f 363 382 383
f 363 383 380
f 364 384 365
f 365 382 367
f 365 384 385
f 365 385 382
f 366 367 382
f 366 382 381
f 368 371 369
f 368 370 378
f 368 378 392
f 368 392 395
f 368 395 406
f 368 406 388
f 368 388 374
f 372 387 403
f 372 403 386
f 374 388 375
f 376 380 389
f 376 389 377
f 377 389 390
f 377 390 391
f 377 391 379
f 379 391 393
f 379 393 394
f 379 394 395
f 379 395 392
f 380 396 389
f 380 383 397
f 380 397 396
f 382 398 397
f 382 397 383
f 382 385 400
f 382 400 398
f 384 399 385
f 385 399 401
f 385 401 400
f 386 403 404
f 386 404 402
f 387 405 403
f 389 396 407
f 389 407 390
f 390 407 408
f 390 408 391
f 391 408 393
f 393 408 414
f 393 414 409
f 393 409 410
f 393 410 411
f 393 411 394
f 394 411 406
f 394 406 395
f 396 397 412
f 396 412 407
f 397 398 400
f 397 400 412
f 400 413 414
f 400 414 412
f 400 401 415
f 400 415 413
f 402 404 413
f 402 413 416
f 403 405 409
f 403 409 404
f 404 409 413
f 405 410 409
f 407 412 414
f 407 414 408
f 409 414 413
f 413 415 417
f 413 417 416
o convex_2
v 0.00108212 0.108199 0.497349
v -0.00997163 0.108199 0.497349
v 0.00108212 0.00193492 0.497349
v 0.00108212 0.113598 0.485167
v -0.0137969 0.110155 0.491966
v -0.0408377 0.103243 0.497349
v -0.010341 0.113598 0.485167
v -0.108189 0.00193492 0.497349
v 0.00108212 0.00193492 -0.726312
v 0.00108212 0.11991 0.463354
v -0.0412862 0.103165 0.497349
v -0.0206824 0.227087 0.0928141
v -0.0309975 0.216784 0.123693
v -0.108189 0.0103599 0.497349
v -0.113597 0.00193492 0.485167
v -0.140269 0.00193492 -0.901525
v 0.00108212 0.139838 -0.901525
v 0.00108212 0.227087 0.0928141
v -0.0686172 0.0894708 0.497349
v -0.0426053 0.214202 0.123693
v -0.0839184 0.203873 0.123693
v 0.00108212 0.227504 0.0912561
v 0.00108212 0.227895 0.089698
v -0.0309975 0.247745 0.0102358
v -0.0309975 0.237416 0.0514542
v -0.106949 0.0210541 0.497349
v -0.111012 0.0154983 0.490267
v -0.113597 0.0103599 0.485167
v -0.227116 0.00193492 0.0928141
v -0.140401 0.00193492 -0.901667
v -0.171293 0.00193492 -0.932545
v 0.00108212 0.170799 -0.932545
v -0.0752653 0.0861322 0.497349
v -0.0426053 0.234834 0.0514542
v -0.0825993 0.227087 0.0411142
v -0.0942334 0.214202 0.0721342
v -0.125205 0.183241 0.113352
v 0.00108212 0.247745 0.0102358
v -0.0309975 0.258074 -0.0414641
v -0.0413126 0.247745 -0.000104151
v -0.0426053 0.245163 0.0102358
v -0.103045 0.04166 0.497349
v -0.214215 0.0361564 0.128933
v -0.216774 0.0310179 0.123693
v -0.227116 0.0206889 0.0928141
v -0.227617 0.00193492 0.0908311
v -0.176306 0.00193492 -0.935095
v -0.184985 0.00193492 -0.939486
v 0.00108212 0.176694 -0.93552
v -0.0755819 0.0858713 0.497349
v -0.125205 0.172912 0.144372
v -0.137631 0.178937 0.103154
v -0.137631 0.168608 0.134032
v -0.0736033 0.234834 0.0205758
v -0.0942334 0.234834 -0.0104442
v -0.135467 0.193544 0.0617942
v -0.104575 0.224531 0.0102358
v -0.114864 0.214202 0.0309158
v -0.147946 0.189266 0.0514542
v 0.00108212 0.258074 -0.0414641
v 0.00108212 0.258465 -0.0445803
v -0.0309975 0.268403 -0.124042
v -0.0619691 0.258074 -0.0828241
v -0.0723106 0.237416 0.0102358
v -0.102385 0.0430424 0.497349
v -0.199996 0.0929399 0.123693
v -0.203874 0.0877754 0.118593
v -0.203874 0.0774464 0.128933
v -0.234846 0.0361564 0.0565534
v -0.237431 0.0310179 0.0514542
v -0.247772 0.0310179 0.0102358
v -0.247772 0.00279567 0.0102358
v -0.247746 0.00193492 0.0102358
v -0.215983 0.00193492 -0.949684
v 0.00108212 0.184571 -0.939486
v -0.0858706 0.0755684 0.497349
v -0.158261 0.189266 0.0309158
v -0.168602 0.178937 0.0309158
v -0.189259 0.158279 0.0309158
v -0.0929407 0.237416 -0.0207842
v -0.0942334 0.245163 -0.0621441
v -0.114864 0.234834 -0.0621441
v -0.127368 0.230556 -0.0724841
v -0.106712 0.230556 -0.0207842
v -0.145809 0.193544 0.0411142
v -0.127368 0.209898 0.0205758
v 0.00108212 0.268403 -0.124042
v -0.0413126 0.268403 -0.154921
v -0.0723106 0.258074 -0.124042
v -0.0929407 0.247745 -0.0724841
v -0.089775 0.0682389 0.497349
v -0.172902 0.129092 0.139273
v -0.183217 0.129092 0.108253
v -0.210337 0.103269 0.0721342
v -0.0871632 0.0731687 0.497349
v -0.214215 0.0981044 0.0668933
v -0.224504 0.0877754 0.0462133
v -0.227116 0.0826109 0.0411142
v -0.237431 0.0723079 0.0102358
v -0.247772 0.0413209 -0.000104151
v -0.258088 0.0619789 -0.0828241
v -0.258088 0.0310179 -0.0518041
v -0.258088 0.00279567 -0.0518041
v -0.24801 0.00193492 0.00867776
v -0.237431 0.00193492 -0.949684
v 0.00108212 0.215532 -0.949684
v -0.168602 0.137621 0.134032
v -0.137631 0.220227 -0.0518041
v -0.158261 0.209898 -0.0621441
v -0.168602 0.199595 -0.0518041
v -0.199574 0.168608 -0.0518041
v -0.210337 0.154836 -0.0518041
v -0.193559 0.149697 0.0358734
v -0.189259 0.189266 -0.0931641
v -0.106712 0.240885 -0.0724841
v -0.117027 0.240885 -0.113702
v -0.147946 0.220227 -0.0828241
v 0.00108212 0.268403 -0.898126
v -0.051654 0.268403 -0.196281
v -0.103256 0.247745 -0.113702
v -0.0825993 0.258074 -0.165261
v -0.110168 0.244302 -0.113702
v -0.193559 0.139368 0.0565534
v -0.210337 0.123927 0.0309158
v -0.230994 0.103269 -0.0104442
v -0.234846 0.0981044 -0.0155433
v -0.220652 0.0929399 0.0514542
v -0.234846 0.0774464 0.015335
v -0.247772 0.0929399 -0.0724841
v -0.258088 0.0723079 -0.124042
v -0.268429 0.0413209 -0.154921
v -0.268429 0.0310179 -0.124042
v -0.268429 0.00279567 -0.124042
v -0.258325 0.00193492 -0.0535039
v -0.258061 0.00193492 -0.0518041
v -0.237431 0.0413209 -0.949684
v -0.242892 0.00193492 -0.946993
v -0.242997 0.00276958 -0.946993
v 0.00108212 0.237416 -0.949684
v -0.168602 0.209898 -0.103362
v -0.178917 0.199595 -0.0931641
v -0.209915 0.158279 -0.0621441
v -0.199574 0.178937 -0.0931641
v -0.209915 0.168608 -0.103362
v -0.220652 0.144507 -0.0724841
v -0.230994 0.123927 -0.0621441
v -0.220652 0.13423 -0.0414641
v -0.189259 0.199595 -0.196281
v -0.209915 0.178937 -0.196281
v -0.127368 0.240885 -0.185941
v -0.0309975 0.268403 -0.898126
v 0.00108212 0.258074 -0.929146
v -0.113597 0.247745 -0.185941
v -0.051654 0.268403 -0.856766
v -0.234846 0.118763 -0.0672433
v -0.245161 0.0981044 -0.0672433
v -0.247772 0.103269 -0.113702
v -0.258088 0.0826109 -0.165261
v -0.268429 0.0516499 -0.196281
v -0.268429 0.00279567 -0.898126
v -0.268403 0.00193492 -0.124042
v -0.227116 0.0723079 -0.949684
v -0.242997 0.00279567 -0.946993
v -0.244317 0.0447639 -0.946285
v -0.251202 0.00193492 -0.942885
v -0.0413126 0.237416 -0.949684
v 0.00108212 0.238981 -0.948976
v -0.158261 0.220227 -0.154921
v -0.178917 0.209898 -0.196281
v -0.22023 0.14795 -0.0828241
v -0.22023 0.158279 -0.154921
v -0.240861 0.127344 -0.185941
v -0.240861 0.117015 -0.113702
v -0.224504 0.139368 -0.0775833
v -0.189259 0.199595 -0.856766
v -0.209915 0.178937 -0.856766
v -0.127368 0.240885 -0.867106
v -0.0723106 0.258074 -0.898126
v -0.0413126 0.268403 -0.887786
v -0.0413126 0.258074 -0.929146
v -0.051654 0.258074 -0.918806
v 0.00108212 0.251214 -0.942885
v -0.113597 0.247745 -0.867106
v -0.0825993 0.258074 -0.877446
v -0.245161 0.108407 -0.108603
v -0.245161 0.118763 -0.180842
v -0.247772 0.113598 -0.185941
v -0.268429 0.0516499 -0.856766
v -0.268403 0.00193492 -0.898126
v -0.268429 0.0310179 -0.898126
v -0.258088 0.00279567 -0.929146
v -0.216774 0.103269 -0.949684
v -0.22366 0.106712 -0.946285
v -0.251202 0.00276958 -0.942885
v -0.251176 0.0378779 -0.942885
v -0.240861 0.0688649 -0.942885
v -0.230545 0.0998259 -0.942885
v -0.258061 0.00193492 -0.929146
v -0.103256 0.216784 -0.949684
v -0.0413126 0.251214 -0.942885
v -0.178917 0.209898 -0.856766
v -0.240861 0.127344 -0.867106
v -0.244317 0.120484 -0.185941
v -0.168602 0.209898 -0.908466
v -0.209915 0.168608 -0.908466
v -0.22023 0.158279 -0.887786
v -0.118742 0.245163 -0.872205
v -0.149687 0.224531 -0.892885
v -0.158261 0.220227 -0.887786
v -0.103256 0.247745 -0.898126
v -0.0929407 0.247745 -0.918806
v -0.0464833 0.255492 -0.934245
v -0.108427 0.245163 -0.903225
v -0.247772 0.113598 -0.867106
v -0.258088 0.0826109 -0.877446
v -0.268429 0.0413209 -0.887786
v -0.265817 0.042599 -0.898126
v -0.255502 0.052928 -0.929146
v -0.258088 0.0413209 -0.929146
v -0.196118 0.13423 -0.949684
v -0.216774 0.114902 -0.947134
v -0.221945 0.116154 -0.944585
v -0.254632 0.0447639 -0.935945
v -0.252917 0.0542321 -0.934245
v -0.242602 0.0851932 -0.934245
v -0.23226 0.116154 -0.934245
v -0.134201 0.196126 -0.949684
v -0.144516 0.19743 -0.947134
v -0.113597 0.218062 -0.947134
v -0.103256 0.230556 -0.942885
v -0.0723106 0.240885 -0.942885
v -0.103256 0.241302 -0.929146
v -0.230545 0.137621 -0.898126
v -0.244317 0.120484 -0.867106
v -0.154831 0.220644 -0.898126
v -0.160002 0.214202 -0.913565
v -0.168602 0.199595 -0.929146
v -0.189259 0.178937 -0.929146
v -0.199574 0.168608 -0.929146
v -0.211604 0.157418 -0.923905
v -0.214215 0.15614 -0.918806
v -0.234846 0.125205 -0.908466
v -0.129083 0.234834 -0.903225
v -0.134201 0.230973 -0.908466
v -0.0980851 0.245163 -0.923905
v -0.113597 0.241302 -0.908466
v -0.233975 0.130813 -0.898126
v -0.247772 0.103269 -0.898126
v -0.258088 0.0723079 -0.898126
v -0.255502 0.073586 -0.908466
v -0.247772 0.0929399 -0.918806
v -0.244317 0.0963829 -0.925605
v -0.196118 0.145811 -0.947134
v -0.185803 0.15614 -0.947134
v -0.201289 0.147089 -0.944585
v -0.22366 0.127344 -0.935945
v -0.20303 0.158279 -0.935945
v -0.234846 0.114902 -0.929146
v -0.221945 0.131674 -0.934245
v -0.149687 0.198734 -0.944585
v -0.118742 0.219366 -0.944585
v -0.129083 0.224531 -0.934245
v -0.118742 0.229695 -0.934245
v -0.108427 0.234834 -0.934245
v -0.123912 0.230973 -0.929146
v -0.154831 0.210315 -0.929146
v -0.160002 0.203873 -0.934245
v -0.165173 0.19743 -0.936794
v -0.196118 0.166469 -0.936794
v -0.201289 0.162583 -0.934245
v -0.245161 0.104573 -0.908466
v -0.190974 0.157418 -0.944585
f 418 419 423
f 418 423 428
f 418 428 436
f 418 436 450
f 418 450 467
f 418 467 493
f 418 493 512
f 418 512 508
f 418 508 482
f 418 482 459
f 418 459 443
f 418 443 431
f 418 431 425
f 418 425 420
f 418 420 426
f 418 426 434
f 418 434 449
f 418 449 466
f 418 466 492
f 418 492 523
f 418 523 556
f 418 556 584
f 418 584 599
f 418 599 569
f 418 569 535
f 418 535 504
f 418 504 478
f 418 478 477
f 418 477 455
f 418 455 440
f 418 440 439
f 418 439 435
f 418 435 427
f 418 427 421
f 418 421 424
f 418 424 419
f 419 422 423
f 419 424 422
f 420 425 432
f 420 432 446
f 420 446 463
f 420 463 490
f 420 490 521
f 420 521 552
f 420 552 551
f 420 551 578
f 420 578 606
f 420 606 615
f 420 615 582
f 420 582 554
f 420 554 522
f 420 522 491
f 420 491 465
f 420 465 464
f 420 464 448
f 420 448 447
f 420 447 433
f 420 433 426
f 421 427 424
f 422 424 423
f 423 424 428
f 424 427 429
f 424 429 430
f 424 430 428
f 425 431 445
f 425 445 432
f 426 433 434
f 427 435 429
f 428 430 437
f 428 437 438
f 428 438 436
f 429 435 439
f 429 439 440
f 429 440 441
f 429 441 442
f 429 442 430
f 430 442 451
f 430 451 437
f 431 443 444
f 431 444 445
f 432 445 462
f 432 462 446
f 433 447 434
f 434 447 448
f 434 448 449
f 436 438 450
f 437 451 438
f 438 451 452
f 438 452 453
f 438 453 454
f 438 454 450
f 440 455 441
f 441 455 477
f 441 477 456
f 441 456 457
f 441 457 458
f 441 458 451
f 441 451 442
f 443 459 444
f 444 459 460
f 444 460 445
f 445 460 461
f 445 461 462
f 446 462 463
f 448 464 449
f 449 464 465
f 449 465 466
f 450 454 468
f 450 468 469
f 450 469 470
f 450 470 467
f 451 458 471
f 451 471 452
f 452 471 472
f 452 472 453
f 453 473 454
f 453 472 474
f 453 474 475
f 453 475 473
f 454 473 476
f 454 476 469
f 454 469 468
f 456 477 478
f 456 478 479
f 456 479 480
f 456 480 457
f 457 481 471
f 457 471 458
f 457 480 481
f 459 482 483
f 459 483 484
f 459 484 485
f 459 485 460
f 460 485 486
f 460 486 487
f 460 487 461
f 461 487 462
f 462 487 488
f 462 488 463
f 463 488 489
f 463 489 490
f 465 491 492
f 465 492 466
f 467 470 494
f 467 494 495
f 467 495 496
f 467 496 493
f 469 476 494
f 469 494 470
f 471 481 497
f 471 497 472
f 472 497 507
f 472 507 498
f 472 498 499
f 472 499 500
f 472 500 501
f 472 501 474
f 473 475 502
f 473 502 494
f 473 494 476
f 474 501 503
f 474 503 475
f 475 503 494
f 475 494 502
f 478 504 479
f 479 504 535
f 479 535 568
f 479 568 596
f 479 596 571
f 479 571 536
f 479 536 505
f 479 505 480
f 480 505 506
f 480 506 507
f 480 507 481
f 481 507 497
f 482 508 483
f 483 509 510
f 483 510 511
f 483 511 484
f 483 508 512
f 483 512 493
f 483 493 509
f 484 511 513
f 484 513 514
f 484 514 485
f 485 514 486
f 486 514 515
f 486 515 487
f 487 515 488
f 488 515 516
f 488 516 517
f 488 517 518
f 488 518 519
f 488 519 520
f 488 520 489
f 489 520 521
f 489 521 490
f 491 522 553
f 491 553 579
f 491 579 609
f 491 609 637
f 491 637 644
f 491 644 616
f 491 616 583
f 491 583 556
f 491 556 523
f 491 523 492
f 493 496 524
f 493 524 509
f 494 503 525
f 494 525 526
f 494 526 527
f 494 527 495
f 495 527 531
f 495 531 496
f 496 528 529
f 496 529 530
f 496 530 509
f 496 509 524
f 496 531 560
f 496 560 528
f 498 507 532
f 498 532 500
f 498 500 499
f 500 533 534
f 500 534 526
f 500 526 525
f 500 525 503
f 500 503 501
f 500 532 533
f 505 536 506
f 506 537 507
f 506 536 538
f 506 538 537
f 507 537 539
f 507 539 532
f 509 530 510
f 510 540 511
f 510 530 540
f 511 540 541
f 511 541 542
f 511 542 543
f 511 543 544
f 511 544 513
f 513 544 514
f 514 543 545
f 514 545 515
f 514 544 543
f 515 545 516
f 516 545 543
f 516 543 546
f 516 546 517
f 517 546 518
f 518 546 574
f 518 574 547
f 518 547 548
f 518 548 549
f 518 549 519
f 519 549 550
f 519 550 520
f 520 550 551
f 520 551 552
f 520 552 521
f 522 554 555
f 522 555 580
f 522 580 553
f 526 534 557
f 526 557 527
f 527 557 558
f 527 558 531
f 528 559 529
f 528 560 561
f 528 561 559
f 529 559 587
f 529 587 562
f 529 562 563
f 529 563 564
f 529 564 530
f 530 564 541
f 530 541 540
f 531 558 565
f 531 565 566
f 531 566 560
f 532 539 533
f 533 557 534
f 533 539 567
f 533 567 557
f 535 569 597
f 535 597 568
f 536 570 538
f 536 571 600
f 536 600 570
f 537 538 570
f 537 570 539
f 539 570 567
f 541 564 563
f 541 563 542
f 542 563 572
f 542 572 543
f 543 572 573
f 543 573 546
f 546 573 574
f 547 574 575
f 547 575 548
f 548 575 576
f 548 576 605
f 548 605 633
f 548 633 607
f 548 607 577
f 548 577 550
f 548 550 549
f 550 577 606
f 550 606 578
f 550 578 551
f 553 580 581
f 553 581 579
f 554 582 555
f 555 582 611
f 555 611 580
f 556 583 584
f 557 567 585
f 557 585 586
f 557 586 558
f 558 586 565
f 559 561 587
f 560 566 561
f 561 566 588
f 561 588 589
f 561 589 590
f 561 590 587
f 562 587 591
f 562 591 563
f 563 591 572
f 565 586 618
f 565 618 592
f 565 592 593
f 565 593 566
f 566 589 588
f 566 593 619
f 566 619 589
f 567 570 600
f 567 600 594
f 567 594 618
f 567 618 586
f 567 586 585
f 568 595 596
f 568 597 598
f 568 598 595
f 569 599 617
f 569 617 597
f 571 596 601
f 571 601 600
f 572 591 602
f 572 602 573
f 573 602 574
f 574 602 603
f 574 603 604
f 574 604 575
f 575 604 576
f 576 604 631
f 576 631 605
f 577 607 636
f 577 636 608
f 577 608 615
f 577 615 606
f 579 581 610
f 579 610 609
f 580 611 612
f 580 612 581
f 581 612 613
f 581 613 614
f 581 614 610
f 582 615 608
f 582 608 636
f 582 636 611
f 583 616 617
f 583 617 584
f 584 617 599
f 587 590 591
f 589 619 651
f 589 651 620
f 589 620 603
f 589 603 590
f 590 602 591
f 590 603 602
f 592 618 621
f 592 621 622
f 592 622 593
f 593 623 619
f 593 622 623
f 594 624 625
f 594 625 626
f 594 626 618
f 594 600 624
f 595 627 601
f 595 601 596
f 595 598 628
f 595 628 627
f 597 628 598
f 597 617 629
f 597 629 628
f 600 601 627
f 600 627 630
f 600 630 624
f 603 620 604
f 604 620 651
f 604 651 631
f 605 631 632
f 605 632 633
f 607 633 634
f 607 634 635
f 607 635 636
f 609 610 638
f 609 638 637
f 610 614 639
f 610 639 638
f 611 636 612
f 612 636 640
f 612 640 641
f 612 641 613
f 613 641 642
f 613 642 614
f 614 642 643
f 614 643 639
f 616 644 645
f 616 645 646
f 616 646 647
f 616 647 648
f 616 648 617
f 617 648 649
f 617 649 629
f 618 626 621
f 619 623 650
f 619 650 651
f 621 626 652
f 621 652 653
f 621 653 654
f 621 654 622
f 622 654 655
f 622 655 656
f 622 656 657
f 622 657 658
f 622 658 659
f 622 659 650
f 622 650 623
f 624 630 660
f 624 660 625
f 625 660 661
f 625 661 652
f 625 652 626
f 627 628 630
f 628 629 662
f 628 662 630
f 629 649 662
f 630 663 660
f 630 662 649
f 630 649 663
f 631 651 664
f 631 664 665
f 631 665 632
f 632 665 666
f 632 666 633
f 633 666 667
f 633 667 634
f 634 667 635
f 635 667 668
f 635 668 669
f 635 669 641
f 635 641 640
f 635 640 636
f 637 638 670
f 637 670 671
f 637 671 645
f 637 645 644
f 638 639 672
f 638 672 670
f 639 643 673
f 639 673 674
f 639 674 672
f 641 669 642
f 642 669 643
f 643 669 675
f 643 675 658
f 643 658 657
f 643 657 676
f 643 676 673
f 645 671 677
f 645 677 646
f 646 677 678
f 646 678 647
f 647 678 679
f 647 679 680
f 647 680 681
f 647 681 649
f 647 649 648
f 649 682 663
f 649 681 680
f 649 680 679
f 649 679 682
f 650 664 651
f 650 659 664
f 652 661 653
f 653 682 683
f 653 683 684
f 653 684 654
f 653 661 682
f 654 684 685
f 654 685 655
f 655 685 686
f 655 686 656
f 656 686 687
f 656 687 657
f 657 687 676
f 658 675 659
f 659 688 665
f 659 665 664
f 659 675 688
f 660 663 661
f 661 663 682
f 665 688 668
f 665 668 666
f 666 668 667
f 668 688 675
f 668 675 669
f 670 672 689
f 670 689 671
f 671 689 677
f 672 674 686
f 672 686 689
f 673 676 674
f 674 676 687
f 674 687 686
f 677 689 686
f 677 686 685
f 677 685 684
f 677 684 679
f 677 679 678
f 679 684 683
f 679 683 682
o convex_3
v 0.268429 0.0310179 -0.124042
v 0.258066 0.0619789 -0.0828241
v 0.258066 0.0310179 -0.0518041
v 0.258092 0.00276958 -0.0518041
v 0.268429 0.00193492 -0.124042
v 0.268429 0.0413209 -0.154921
v 0.258066 0.0723079 -0.124042
v 0.247755 0.0929399 -0.0724841
v 0.247755 0.0413209 -0.000104151
v 0.247755 0.0310179 0.0102358
v 0.258092 0.00193492 -0.0518041
v 0.268429 0.00193492 -0.898126
v 0.268429 0.0516499 -0.196281
v 0.258066 0.0826109 -0.165261
v 0.247755 0.103269 -0.113702
v 0.240873 0.106712 -0.068943
v 0.242574 0.0981044 -0.0569033
v 0.232263 0.0981044 -0.00520334
v 0.237418 0.0929399 -0.0207842
v 0.237418 0.0723079 0.0102358
v 0.246054 0.0396254 0.00853612
v 0.247755 0.00193492 0.0102358
v 0.237418 0.0310179 0.0514542
v 0.227107 0.0206889 0.0928141
v 0.227605 0.00193492 0.0908311
v 0.268429 0.0310179 -0.898126
v 0.258092 0.00193492 -0.929146
v 0.247755 0.113598 -0.185941
v 0.268429 0.0516499 -0.856766
v 0.240873 0.117015 -0.110303
v 0.230562 0.127344 -0.068943
v 0.230562 0.106712 -0.0173847
v 0.209888 0.127344 0.0239753
v 0.211615 0.118763 0.0358734
v 0.211615 0.0981044 0.0772333
v 0.227107 0.0826109 0.0411142
v 0.235717 0.0705864 0.0188761
v 0.235717 0.0396254 0.0497545
v 0.232263 0.0464854 0.0565534
v 0.211615 0.0464854 0.128933
v 0.216771 0.0310179 0.123693
v 0.227107 0.00193492 0.0928141
v 0.113611 0.0103599 0.485167
v 0.265812 0.0413209 -0.8994
v 0.268429 0.0413209 -0.887786
v 0.258092 0.00276958 -0.929146
v 0.258066 0.0413209 -0.929146
v 0.255501 0.0516499 -0.93042
v 0.252125 0.00193492 -0.941044
v 0.25121 0.00279567 -0.942885
v 0.240873 0.127344 -0.182541
v 0.247755 0.113598 -0.867106
v 0.258066 0.0826109 -0.877446
v 0.220225 0.14795 -0.079283
v 0.209888 0.158279 -0.058603
v 0.220225 0.137621 -0.048263
v 0.18924 0.158279 0.0343153
v 0.190967 0.149697 0.0462133
v 0.190967 0.139368 0.0668933
v 0.180657 0.129092 0.118593
v 0.201304 0.0877754 0.128933
v 0.103143 0.0411383 0.497349
v 0.113611 0.00279567 0.485167
v 0.117562 0.00193492 0.471428
v 0.108194 0.0107511 0.497349
v 0.255501 0.0723079 -0.90974
v 0.258066 0.0723079 -0.898126
v 0.25121 0.0413209 -0.942885
v 0.240873 0.0929399 -0.932545
v 0.242574 0.0981044 -0.926454
v 0.244301 0.0998259 -0.922205
v 0.247755 0.0929399 -0.918806
v 0.251183 0.00193492 -0.942885
v 0.246185 0.00276958 -0.945435
v 0.209888 0.178937 -0.192881
v 0.220225 0.158279 -0.151521
v 0.240873 0.127344 -0.863706
v 0.247755 0.103269 -0.898126
v 0.244301 0.120484 -0.870505
v 0.209888 0.168608 -0.099963
v 0.199551 0.168608 -0.048263
v 0.17893 0.168608 0.0343153
v 0.168593 0.137621 0.137574
v 0.17032 0.129092 0.149613
v 0.0860281 0.0757249 0.497349
v 0.0920994 0.0646133 0.497349
v 0.0969931 0.0555624 0.497349
v 0.113584 0.00193492 0.485167
v 0.108194 0.00193492 0.497349
v 0.246185 0.00279567 -0.945435
v 0.242574 0.0464854 -0.947134
v 0.232263 0.0774464 -0.947134
v 0.230562 0.103269 -0.942885
v 0.232263 0.118763 -0.931695
v 0.234854 0.113598 -0.93042
v 0.23399 0.120484 -0.922205
v 0.244301 0.110155 -0.901525
v 0.246133 0.00193492 -0.945435
v 0.23925 0.00193492 -0.948834
v 0.239276 0.00276958 -0.948834
v 0.209888 0.178937 -0.853366
v 0.17893 0.209898 -0.192881
v 0.17893 0.199595 -0.089623
v 0.199551 0.178937 -0.089623
v 0.223679 0.151393 -0.891185
v 0.220225 0.158279 -0.884245
v 0.23399 0.130813 -0.901525
v 0.17893 0.189266 -0.048263
v 0.158282 0.189266 0.0343153
v 0.158282 0.14795 0.137574
v 0.0814484 0.0803156 0.497349
v 0.00110829 0.00193492 0.497349
v 0.239276 0.00279567 -0.948834
v 0.237418 0.0413209 -0.949684
v 0.227107 0.0723079 -0.949684
v 0.221926 0.108407 -0.947134
v 0.221926 0.118763 -0.942035
v 0.221926 0.129092 -0.936794
v 0.223679 0.130813 -0.932545
v 0.211615 0.16 -0.921355
v 0.232263 0.129092 -0.911015
v 0.237418 0.00193492 -0.949684
v 0.17893 0.209898 -0.853366
v 0.209888 0.168608 -0.904925
v 0.17893 0.199595 -0.904925
v 0.12735 0.240885 -0.182541
v 0.158282 0.220227 -0.151521
v 0.168593 0.209898 -0.099963
v 0.158282 0.209898 -0.058603
v 0.168593 0.199595 -0.048263
v 0.213342 0.161722 -0.911865
v 0.137634 0.220227 -0.048263
v 0.12735 0.209898 0.0239753
v 0.118766 0.211619 0.0358734
v 0.149672 0.190987 0.0462133
v 0.139361 0.190987 0.0668933
v 0.129077 0.180658 0.118593
v 0.129077 0.170329 0.149613
v 0.137634 0.168608 0.137574
v 0.0757173 0.0860278 0.497349
v 0.00110829 0.108199 0.497349
v 0.00110829 0.00193492 -0.726312
v 0.216771 0.103269 -0.949684
v 0.201304 0.139368 -0.947134
v 0.201304 0.149697 -0.942035
v 0.201304 0.16 -0.936794
v 0.203032 0.161722 -0.932545
v 0.201304 0.170329 -0.921355
v 0.215985 0.00193492 -0.949684
v 0.168593 0.209898 -0.904925
v 0.158282 0.220227 -0.884245
v 0.12735 0.240885 -0.863706
v 0.160009 0.211619 -0.921355
v 0.113611 0.247745 -0.185941
v 0.117039 0.240885 -0.110303
v 0.147945 0.220227 -0.079283
v 0.12735 0.230556 -0.068943
v 0.117039 0.220227 0.0032953
v 0.0980922 0.232277 -0.00520334
v 0.0980922 0.211619 0.0772333
v 0.0877814 0.20129 0.128933
v 0.0645953 0.0921053 0.497349
v 0.0107648 0.108199 0.497349
v 0.00110829 0.113598 0.485167
v 0.00110829 0.139838 -0.901525
v 0.140277 0.00193492 -0.901525
v 0.196123 0.13423 -0.949684
v 0.134258 0.196126 -0.949684
v 0.139361 0.20129 -0.947134
v 0.154854 0.196126 -0.94331
v 0.185812 0.165165 -0.94331
v 0.196123 0.154836 -0.94331
v 0.160009 0.20129 -0.936794
v 0.161736 0.203012 -0.932545
v 0.00110829 0.215532 -0.949684
v 0.185001 0.00193492 -0.939486
v 0.00110829 0.184571 -0.939486
v 0.161736 0.213341 -0.911865
v 0.151373 0.22367 -0.891185
v 0.120467 0.244302 -0.870505
v 0.113611 0.247745 -0.867106
v 0.118766 0.232277 -0.931695
v 0.0516415 0.268403 -0.196281
v 0.0825999 0.258074 -0.165261
v 0.103274 0.247745 -0.113702
v 0.106702 0.240885 -0.068943
v 0.106702 0.230556 -0.0173847
v 0.0980922 0.242607 -0.0569033
v 0.0929368 0.237416 -0.0207842
v 0.0722891 0.237416 0.0102358
v 0.0825999 0.227087 0.0411142
v 0.0464861 0.232277 0.0565534
v 0.0464861 0.211619 0.128933
v 0.0411475 0.103165 0.497349
v 0.0557501 0.0969046 0.497349
v 0.0103461 0.113598 0.485167
v 0.00110829 0.11991 0.463354
v 0.140408 0.00193492 -0.901667
v 0.00110829 0.170799 -0.932545
v 0.171236 0.00193492 -0.932545
v 0.103274 0.216784 -0.949684
v 0.108429 0.221948 -0.947134
v 0.118766 0.221948 -0.942035
v 0.149672 0.20129 -0.942035
v 0.129077 0.221948 -0.936794
v 0.00110829 0.237416 -0.949684
v 0.00110829 0.176694 -0.93552
v 0.129077 0.232277 -0.911015
v 0.130778 0.233999 -0.901525
v 0.110156 0.244302 -0.901525
v 0.103274 0.247745 -0.898126
v 0.0825999 0.258074 -0.877446
v 0.0516415 0.268403 -0.856766
v 0.0980922 0.242607 -0.926454
v 0.0998194 0.244302 -0.922205
v 0.120467 0.233999 -0.922205
v 0.103274 0.230556 -0.942885
v 0.0929368 0.240885 -0.932545
v 0.0413307 0.268403 -0.154921
v 0.0722891 0.258074 -0.124042
v 0.0929368 0.247745 -0.0724841
v 0.0413307 0.247745 -0.000104151
v 0.0705881 0.235694 0.0188761
v 0.0309938 0.237416 0.0514542
v 0.0309938 0.247745 0.0102358
v 0.0309938 0.216784 0.123693
v 0.020683 0.227087 0.0928141
v 0.00110829 0.227087 0.0928141
v 0.0413307 0.237416 -0.949684
v 0.0464861 0.242607 -0.947134
v 0.00110829 0.238981 -0.948976
v 0.00236444 0.239033 -0.948976
v 0.0722891 0.258074 -0.898126
v 0.0929368 0.247745 -0.918806
v 0.0413307 0.268403 -0.887786
v 0.0516415 0.255492 -0.93042
v 0.0413307 0.251214 -0.942885
v 0.0309938 0.268403 -0.124042
v 0.0619522 0.258074 -0.0828241
v 0.0309938 0.258074 -0.0414641
v 0.00110829 0.247745 0.0102358
v 0.00110829 0.227895 0.089698
v 0.00110829 0.227504 0.0912561
v 0.0023906 0.239033 -0.948976
v 0.00110829 0.251214 -0.942885
v 0.00236444 0.245893 -0.945576
v 0.0722891 0.255492 -0.90974
v 0.0413307 0.265821 -0.8994
v 0.0309938 0.268403 -0.898126
v 0.0413307 0.258074 -0.929146
v 0.0023906 0.245893 -0.945576
v 0.00110829 0.268403 -0.124042
v 0.00110829 0.258465 -0.0445803
v 0.00110829 0.258074 -0.0414641
v 0.00110829 0.258074 -0.929146
v 0.00110829 0.268403 -0.898126
f 690 691 692
f 690 692 693
f 690 693 700
f 690 700 694
f 690 694 701
f 690 701 715
f 690 715 734
f 690 734 718
f 690 718 702
f 690 702 695
f 690 695 691
f 691 695 696
f 691 696 704
f 691 704 697
f 691 697 698
f 691 698 699
f 691 699 692
f 692 699 693
f 693 699 711
f 693 711 700
f 694 700 711
f 694 711 714
f 694 714 731
f 694 731 753
f 694 753 777
f 694 777 778
f 694 778 801
f 694 801 831
f 694 831 855
f 694 855 887
f 694 887 889
f 694 889 865
f 694 865 838
f 694 838 811
f 694 811 788
f 694 788 787
f 694 787 762
f 694 762 738
f 694 738 716
f 694 716 701
f 695 702 703
f 695 703 696
f 696 703 704
f 697 705 706
f 697 706 707
f 697 707 708
f 697 708 709
f 697 709 698
f 697 704 705
f 698 709 710
f 698 710 699
f 699 710 727
f 699 727 712
f 699 712 713
f 699 713 714
f 699 714 711
f 701 716 735
f 701 735 715
f 702 717 703
f 702 718 741
f 702 741 717
f 703 717 704
f 704 717 740
f 704 740 719
f 704 719 705
f 705 719 720
f 705 720 721
f 705 721 707
f 705 707 706
f 707 709 708
f 707 721 722
f 707 722 723
f 707 723 724
f 707 724 725
f 707 725 709
f 709 726 710
f 709 725 726
f 710 726 727
f 712 727 728
f 712 728 729
f 712 729 730
f 712 730 713
f 713 731 714
f 713 730 732
f 713 732 752
f 713 752 731
f 715 733 734
f 715 735 736
f 715 736 737
f 715 737 733
f 716 738 739
f 716 739 757
f 716 757 735
f 717 741 766
f 717 766 740
f 718 734 742
f 718 742 741
f 719 740 765
f 719 765 743
f 719 743 720
f 720 743 744
f 720 744 745
f 720 745 722
f 720 722 721
f 722 746 747
f 722 747 723
f 722 745 746
f 723 747 748
f 723 748 724
f 724 748 749
f 724 749 750
f 724 750 725
f 725 750 728
f 725 728 727
f 725 727 726
f 728 750 729
f 729 750 751
f 729 751 730
f 730 751 732
f 731 752 753
f 732 751 754
f 732 754 778
f 732 778 752
f 733 755 734
f 733 737 755
f 734 755 756
f 734 756 742
f 735 757 736
f 736 757 737
f 737 758 759
f 737 759 760
f 737 760 761
f 737 761 755
f 737 757 758
f 738 762 739
f 739 762 763
f 739 763 779
f 739 779 757
f 740 764 765
f 740 766 790
f 740 790 764
f 741 742 767
f 741 767 786
f 741 786 768
f 741 768 766
f 742 756 767
f 743 765 769
f 743 769 744
f 744 770 746
f 744 746 745
f 744 769 793
f 744 793 770
f 746 770 797
f 746 797 771
f 746 771 799
f 746 799 772
f 746 772 773
f 746 773 749
f 746 749 748
f 746 748 747
f 749 773 774
f 749 774 750
f 750 774 775
f 750 775 776
f 750 776 751
f 751 776 775
f 751 775 774
f 751 774 800
f 751 800 829
f 751 829 851
f 751 851 884
f 751 884 883
f 751 883 852
f 751 852 830
f 751 830 801
f 751 801 778
f 751 778 754
f 752 777 753
f 752 778 777
f 755 761 756
f 756 761 767
f 757 779 780
f 757 780 781
f 757 781 782
f 757 782 758
f 758 783 784
f 758 784 759
f 758 782 783
f 759 784 760
f 760 784 783
f 760 783 785
f 760 785 796
f 760 796 786
f 760 786 767
f 760 767 761
f 762 787 763
f 763 787 788
f 763 788 789
f 763 789 802
f 763 802 779
f 764 790 812
f 764 812 791
f 764 791 792
f 764 792 793
f 764 793 769
f 764 769 765
f 766 768 794
f 766 794 795
f 766 795 790
f 768 786 796
f 768 796 794
f 770 793 792
f 770 792 797
f 771 797 798
f 771 798 828
f 771 828 799
f 772 799 800
f 772 800 774
f 772 774 773
f 779 802 803
f 779 803 780
f 780 803 804
f 780 804 781
f 781 804 832
f 781 832 805
f 781 805 782
f 782 805 806
f 782 806 807
f 782 807 783
f 783 807 808
f 783 808 809
f 783 809 810
f 783 810 796
f 783 796 785
f 788 811 789
f 789 811 803
f 789 803 802
f 790 795 813
f 790 813 814
f 790 814 812
f 791 812 841
f 791 841 815
f 791 815 816
f 791 816 817
f 791 817 792
f 792 817 818
f 792 818 819
f 792 819 797
f 794 796 820
f 794 820 813
f 794 813 795
f 796 810 809
f 796 809 820
f 797 819 798
f 798 819 818
f 798 818 821
f 798 821 822
f 798 822 823
f 798 823 824
f 798 824 825
f 798 825 826
f 798 826 827
f 798 827 828
f 799 828 800
f 800 828 829
f 801 830 853
f 801 853 886
f 801 886 917
f 801 917 932
f 801 932 931
f 801 931 930
f 801 930 943
f 801 943 942
f 801 942 941
f 801 941 945
f 801 945 944
f 801 944 934
f 801 934 920
f 801 920 895
f 801 895 864
f 801 864 866
f 801 866 896
f 801 896 888
f 801 888 854
f 801 854 831
f 803 811 838
f 803 838 864
f 803 864 895
f 803 895 918
f 803 918 890
f 803 890 857
f 803 857 856
f 803 856 832
f 803 832 804
f 805 832 833
f 805 833 806
f 806 834 807
f 806 833 834
f 807 834 835
f 807 835 808
f 808 836 809
f 808 835 836
f 809 837 813
f 809 813 820
f 809 836 837
f 812 814 839
f 812 839 840
f 812 840 841
f 813 837 814
f 814 837 842
f 814 842 839
f 815 843 844
f 815 844 816
f 815 841 870
f 815 870 843
f 816 844 817
f 817 844 845
f 817 845 818
f 818 846 821
f 818 845 846
f 821 846 822
f 822 846 847
f 822 847 848
f 822 848 823
f 823 848 849
f 823 849 825
f 823 825 824
f 825 849 826
f 826 849 850
f 826 850 829
f 826 829 827
f 827 829 828
f 829 850 851
f 830 852 885
f 830 885 853
f 831 854 855
f 832 856 833
f 833 856 857
f 833 857 858
f 833 858 859
f 833 859 860
f 833 860 861
f 833 861 834
f 834 861 835
f 835 861 860
f 835 860 859
f 835 859 862
f 835 862 863
f 835 863 836
f 836 863 842
f 836 842 837
f 838 865 866
f 838 866 864
f 839 842 867
f 839 867 840
f 840 867 868
f 840 868 841
f 841 868 869
f 841 869 870
f 842 863 871
f 842 871 867
f 843 872 873
f 843 873 874
f 843 874 844
f 843 870 902
f 843 902 872
f 844 874 875
f 844 875 846
f 844 846 845
f 846 875 876
f 846 876 847
f 847 876 848
f 848 876 875
f 848 875 877
f 848 877 910
f 848 910 878
f 848 878 879
f 848 879 880
f 848 880 849
f 849 880 850
f 850 880 881
f 850 881 882
f 850 882 883
f 850 883 884
f 850 884 851
f 852 883 885
f 853 885 886
f 854 887 855
f 854 888 889
f 854 889 887
f 857 890 891
f 857 891 858
f 858 891 859
f 859 891 892
f 859 892 893
f 859 893 862
f 862 894 863
f 862 893 892
f 862 892 894
f 863 894 871
f 865 889 888
f 865 888 896
f 865 896 866
f 867 871 897
f 867 897 898
f 867 898 868
f 868 898 869
f 869 898 899
f 869 899 870
f 870 899 900
f 870 900 901
f 870 901 902
f 871 903 904
f 871 904 905
f 871 905 898
f 871 898 897
f 871 894 906
f 871 906 907
f 871 907 903
f 872 908 873
f 872 902 924
f 872 924 938
f 872 938 945
f 872 945 941
f 872 941 927
f 872 927 908
f 873 908 909
f 873 909 874
f 874 909 928
f 874 928 910
f 874 910 875
f 875 910 877
f 878 910 879
f 879 910 911
f 879 911 912
f 879 912 880
f 880 912 881
f 881 913 882
f 881 912 914
f 881 914 913
f 882 913 915
f 882 915 883
f 883 915 885
f 885 915 916
f 885 916 886
f 886 916 917
f 890 918 919
f 890 919 891
f 891 919 926
f 891 926 906
f 891 906 892
f 892 906 894
f 895 920 921
f 895 921 933
f 895 933 918
f 898 905 899
f 899 905 904
f 899 904 923
f 899 923 900
f 900 922 901
f 900 923 922
f 901 924 902
f 901 922 924
f 903 925 904
f 903 907 925
f 904 925 923
f 906 926 907
f 907 926 925
f 908 927 928
f 908 928 909
f 910 928 911
f 911 914 912
f 911 928 929
f 911 929 914
f 913 916 915
f 913 914 916
f 914 930 931
f 914 931 916
f 914 929 943
f 914 943 930
f 916 931 932
f 916 932 917
f 918 933 919
f 919 933 926
f 920 934 935
f 920 935 921
f 921 935 940
f 921 940 933
f 922 923 936
f 922 936 937
f 922 937 924
f 923 925 936
f 924 937 938
f 925 939 937
f 925 937 936
f 925 926 939
f 926 933 940
f 926 940 935
f 926 935 934
f 926 934 944
f 926 944 939
f 927 941 942
f 927 942 929
f 927 929 928
f 929 942 943
f 937 939 938
f 938 939 944
f 938 944 945
o convex_4
v 0.0309974 -0.268429 -0.898072
v 0.0426134 -0.265809 -0.898072
v 0.0413023 -0.268429 -0.887833
v 0.000554804 -0.268429 -0.897651
v 0.000554804 -0.268403 -0.898072
v 0.000554804 -0.258081 -0.929067
v 0.0309974 -0.258081 -0.929067
v 0.0516334 -0.258081 -0.918829
v 0.0632493 -0.255488 -0.918829
v 0.0736066 -0.255488 -0.90845
v 0.0826267 -0.258081 -0.877455
v 0.0516334 -0.268429 -0.856838
v 0.0722956 -0.258081 -0.898072
v 0.000554804 -0.268429 -0.124025
v 0.000554804 -0.251174 -0.942812
v 0.0344324 -0.254641 -0.935939
v 0.0550684 -0.254641 -0.925561
v 0.0929578 -0.24776 -0.918829
v 0.0963927 -0.24432 -0.925561
v 0.113594 -0.24776 -0.867076
v 0.103289 -0.24776 -0.898072
v 0.0516334 -0.268429 -0.196254
v 0.0309974 -0.268429 -0.124025
v 0.000554804 -0.258081 -0.0517955
v 0.000554804 -0.237439 -0.949684
v 0.0275625 -0.251174 -0.942812
v 0.0757568 -0.24432 -0.935939
v 0.114879 -0.234872 -0.929067
v 0.104574 -0.245166 -0.90845
v 0.0852226 -0.242573 -0.934256
v 0.11619 -0.232252 -0.934256
v 0.12049 -0.24432 -0.867076
v 0.113594 -0.24776 -0.186016
v 0.117029 -0.240853 -0.898072
v 0.0826267 -0.258081 -0.165259
v 0.0413023 -0.268429 -0.15502
v 0.0619645 -0.258081 -0.082791
v 0.0309974 -0.258081 -0.0517955
v 0.000554804 -0.24776 0.0101955
v 0.000554804 -0.216743 -0.949684
v 0.0413023 -0.237439 -0.949684
v 0.0447635 -0.24432 -0.946178
v 0.0688344 -0.240853 -0.942812
v 0.0998277 -0.230558 -0.942812
v 0.156124 -0.214203 -0.918829
v 0.12736 -0.230558 -0.918829
v 0.11619 -0.22193 -0.944495
v 0.12736 -0.223651 -0.935939
v 0.147104 -0.211636 -0.934256
v 0.157409 -0.211636 -0.923878
v 0.12736 -0.240853 -0.867076
v 0.12049 -0.24432 -0.186016
v 0.118759 -0.245166 -0.180827
v 0.103289 -0.24776 -0.113646
v 0.158274 -0.220237 -0.887833
v 0.0929578 -0.24776 -0.0724125
v 0.0413023 -0.24776 -0.000183065
v 0.0309974 -0.24776 0.0101955
v 0.000554804 -0.247734 0.0103358
v 0.215987 0.00193492 -0.949684
v 0.000554804 -0.185753 -0.939446
v 0.184994 0.00193492 -0.939446
v 0.103289 -0.21677 -0.949684
v 0.106724 -0.223651 -0.946178
v 0.168605 -0.209915 -0.90845
v 0.114879 -0.21677 -0.947019
v 0.147104 -0.201314 -0.944495
v 0.158274 -0.203008 -0.935939
v 0.162575 -0.201314 -0.934256
v 0.168605 -0.199568 -0.929067
v 0.178937 -0.209915 -0.856838
v 0.12736 -0.240853 -0.186016
v 0.117029 -0.240853 -0.113646
v 0.108428 -0.245166 -0.108597
v 0.0981233 -0.245166 -0.0672232
v 0.0981233 -0.234872 -0.0156107
v 0.0722956 -0.237439 0.0101955
v 0.0619645 -0.237439 0.0205741
v 0.0309974 -0.237439 0.0515697
v 0.000554804 -0.227118 0.0928035
v 0.237409 0.00193492 -0.949684
v 0.000554804 -0.172018 -0.932433
v 0.171228 0.00193492 -0.932433
v 0.134256 -0.196127 -0.949684
v 0.178937 -0.189246 -0.929067
v 0.199573 -0.168604 -0.929067
v 0.209904 -0.168604 -0.90845
v 0.145793 -0.196127 -0.947019
v 0.176786 -0.165164 -0.947019
v 0.197422 -0.144521 -0.947019
v 0.198707 -0.149682 -0.944495
v 0.197422 -0.165164 -0.936781
v 0.166455 -0.196127 -0.936781
v 0.209904 -0.178925 -0.856838
v 0.178937 -0.209915 -0.196254
v 0.158274 -0.220237 -0.15502
v 0.168605 -0.209915 -0.103268
v 0.137638 -0.230558 -0.134263
v 0.14797 -0.220237 -0.082791
v 0.139343 -0.224524 -0.0776017
v 0.118759 -0.234872 -0.0672232
v 0.0774611 -0.234872 0.0152446
v 0.103289 -0.230981 -0.0104214
v 0.123925 -0.210339 0.0308124
v 0.113594 -0.210339 0.0515697
v 0.0929578 -0.22066 0.0515697
v 0.0877922 -0.224524 0.0462401
v 0.0826267 -0.227118 0.0411911
v 0.036163 -0.234872 0.0566187
v 0.036163 -0.214203 0.128988
v 0.0309974 -0.21677 0.123659
v 0.0206663 -0.227118 0.0928035
v 0.000554804 -0.114192 0.483123
v 0.237409 -0.041335 -0.949684
v 0.239245 0.00193492 -0.948842
v 0.000554804 -0.141028 -0.901438
v 0.140261 0.00193492 -0.901438
v 0.160949 0.00193492 -0.922195
v 0.196138 -0.1342 -0.949684
v 0.203873 -0.160003 -0.934256
v 0.214204 -0.160003 -0.913499
v 0.220654 -0.154842 -0.898072
v 0.220208 -0.158283 -0.887833
v 0.218058 -0.113584 -0.947019
v 0.219343 -0.118771 -0.944495
v 0.209904 -0.178925 -0.196254
v 0.240871 -0.127372 -0.867076
v 0.199573 -0.178925 -0.0931696
v 0.178937 -0.199568 -0.0931696
v 0.168605 -0.199568 -0.0517955
v 0.158274 -0.209915 -0.0621741
v 0.154839 -0.210339 -0.0517955
v 0.144508 -0.22066 -0.0724125
v 0.123925 -0.230981 -0.0621741
v 0.149674 -0.19356 0.0360018
v 0.139343 -0.19356 0.0566187
v 0.0929578 -0.199991 0.123659
v 0.0877922 -0.203881 0.11861
v 0.0774611 -0.203881 0.128988
v 0.0429542 -0.106571 0.483123
v 0.041145 -0.10702 0.483123
v 0.0159203 -0.113054 0.483123
v 0.0104926 -0.114192 0.483123
v 0.000554804 0.000294108 0.483123
v 0.227105 -0.0722723 -0.949684
v 0.246272 0.00193492 -0.945336
v 0.251176 -0.041335 -0.942812
v 0.000554804 0.00193492 -0.725703
v 0.216774 -0.103262 -0.949684
v 0.224509 -0.129066 -0.934256
v 0.230959 -0.123931 -0.929067
v 0.210323 -0.154842 -0.929067
v 0.24129 -0.113584 -0.90845
v 0.245171 -0.10845 -0.903261
v 0.224509 -0.149682 -0.892882
v 0.245171 -0.118771 -0.872265
v 0.23054 -0.103262 -0.942812
v 0.240871 -0.127372 -0.186016
v 0.220208 -0.158283 -0.15502
v 0.209904 -0.168604 -0.103268
v 0.199573 -0.168604 -0.0517955
v 0.178937 -0.168604 0.0308124
v 0.158274 -0.189246 0.0308124
v 0.14797 -0.178925 0.0825652
v 0.12909 -0.172891 0.139227
v 0.12909 -0.183213 0.108231
v 0.0763074 -0.0898713 0.483123
v 0.062148 -0.0974138 0.483123
v 0.0434787 -0.106385 0.483123
v 0.0432689 -0.106465 0.483123
v 0.00535326 0.00193492 0.483123
v 0.000554804 0.00193492 0.482982
v 0.240871 -0.0722723 -0.942812
v 0.251176 0.00193492 -0.942812
v 0.25212 0.00193492 -0.940988
v 0.255476 -0.0464691 -0.934256
v 0.24129 -0.103262 -0.929067
v 0.229674 -0.118771 -0.934256
v 0.23484 -0.10845 -0.934256
v 0.245171 -0.0981018 -0.923878
v 0.247741 -0.0929412 -0.918829
v 0.258072 -0.08262 -0.877455
v 0.247741 -0.113584 -0.867076
v 0.247741 -0.113584 -0.186016
v 0.240871 -0.117051 -0.113646
v 0.220208 -0.147935 -0.082791
v 0.209904 -0.158283 -0.0621741
v 0.189241 -0.158283 0.0308124
v 0.178937 -0.147935 0.0825652
v 0.0778807 -0.0888921 0.483123
v 0.137638 -0.168604 0.134037
v 0.0775922 -0.0890774 0.483123
v 0.114197 0.00193492 0.483123
v 0.258072 -0.041335 -0.929067
v 0.258072 0.00193492 -0.929067
v 0.268429 -0.041335 -0.887833
v 0.258072 -0.0722723 -0.898072
v 0.268429 -0.0516562 -0.856838
v 0.268429 -0.0516562 -0.196254
v 0.258072 -0.08262 -0.165259
v 0.247741 -0.103262 -0.113646
v 0.244306 -0.0998485 -0.0724125
v 0.23054 -0.127372 -0.0724125
v 0.209904 -0.127372 0.0205741
v 0.193542 -0.145791 0.0411911
v 0.189241 -0.147935 0.0515697
v 0.178937 -0.137614 0.103182
v 0.168605 -0.137614 0.134037
v 0.0888411 -0.0779092 0.483123
v 0.114197 -0.0103977 0.483123
v 0.227105 0.00193492 0.0928035
v 0.268429 -0.0310137 -0.898072
v 0.268429 0.00193492 -0.898072
v 0.268429 -0.041335 -0.15502
v 0.258072 -0.0619775 -0.082791
v 0.247741 -0.0929412 -0.0724125
v 0.245171 -0.094238 -0.0621741
v 0.23484 -0.114881 -0.0621741
v 0.23484 -0.094238 -0.0104214
v 0.23054 -0.106703 -0.0208
v 0.214204 -0.114881 0.0308124
v 0.214204 -0.094238 0.0721866
v 0.193542 -0.13547 0.061808
v 0.183237 -0.125228 0.11342
v 0.172906 -0.125228 0.144416
v 0.0891295 -0.0774858 0.483123
v 0.111627 -0.0220157 0.483123
v 0.216774 -0.0310137 0.123659
v 0.227105 -0.020666 0.0928035
v 0.227603 0.00193492 0.09084
v 0.268429 0.00193492 -0.124025
v 0.268429 -0.0310137 -0.124025
v 0.258072 -0.0310137 -0.0517955
v 0.247741 -0.0310137 0.0101955
v 0.247741 -0.041335 -0.000183065
v 0.237409 -0.0722723 0.0101955
v 0.237409 -0.0929412 -0.0208
v 0.23484 -0.0735955 0.0205741
v 0.227105 -0.08262 0.0411911
v 0.203873 -0.0839167 0.123659
v 0.0899948 -0.0760038 0.483123
v 0.0892082 -0.0773535 0.483123
v 0.106986 -0.0413614 0.483123
v 0.214204 -0.0426053 0.123659
v 0.237409 -0.0310137 0.0515697
v 0.247741 0.00193492 0.0101955
v 0.258334 0.00193492 -0.0536188
v 0.258072 0.00193492 -0.0517955
v 0.248003 0.00193492 0.00865276
v 0.245171 -0.0426053 0.0101955
v 0.23484 -0.0426053 0.0515697
v 0.106645 -0.042764 0.483123
v 0.10342 -0.0492215 0.483123
v 0.0934297 -0.0691759 0.483123
f 946 947 948
f 946 948 957
f 946 957 967
f 946 967 981
f 946 981 968
f 946 968 959
f 946 959 949
f 946 949 950
f 946 950 951
f 946 951 952
f 946 952 953
f 946 953 954
f 946 954 947
f 947 954 955
f 947 955 948
f 948 956 957
f 948 955 958
f 948 958 956
f 949 959 969
f 949 969 984
f 949 984 1004
f 949 1004 1025
f 949 1025 1058
f 949 1058 1089
f 949 1089 1117
f 949 1117 1093
f 949 1093 1061
f 949 1061 1027
f 949 1027 1006
f 949 1006 985
f 949 985 970
f 949 970 960
f 949 960 951
f 949 951 950
f 951 960 961
f 951 961 952
f 952 961 953
f 953 962 954
f 953 961 962
f 954 963 955
f 954 962 964
f 954 964 963
f 955 963 958
f 956 965 957
f 956 958 963
f 956 963 966
f 956 966 965
f 957 965 978
f 957 978 967
f 959 968 983
f 959 983 969
f 960 970 986
f 960 986 971
f 960 971 961
f 961 972 964
f 961 964 962
f 961 971 972
f 963 964 973
f 963 973 974
f 963 974 966
f 964 972 975
f 964 975 976
f 964 976 973
f 965 977 997
f 965 997 978
f 965 966 977
f 966 974 979
f 966 979 977
f 967 978 980
f 967 980 982
f 967 982 981
f 968 982 983
f 968 981 982
f 969 983 1003
f 969 1003 984
f 970 985 1005
f 970 1005 1026
f 970 1026 1059
f 970 1059 1090
f 970 1090 1094
f 970 1094 1064
f 970 1064 1029
f 970 1029 1008
f 970 1008 986
f 971 987 988
f 971 988 972
f 971 986 987
f 972 988 989
f 972 989 975
f 973 976 990
f 973 990 991
f 973 991 974
f 974 991 979
f 975 989 976
f 976 989 992
f 976 992 993
f 976 993 994
f 976 994 995
f 976 995 990
f 977 996 1017
f 977 1017 997
f 977 979 996
f 978 997 998
f 978 998 999
f 978 999 980
f 979 991 1000
f 979 1000 996
f 980 999 1001
f 980 1001 982
f 982 1001 1022
f 982 1022 1002
f 982 1002 1003
f 982 1003 983
f 984 1003 1004
f 985 1006 1007
f 985 1007 1005
f 986 1008 987
f 987 1009 989
f 987 989 988
f 987 1008 1009
f 989 1009 992
f 990 1010 991
f 990 995 1010
f 991 1010 1000
f 992 1009 1011
f 992 1011 1012
f 992 1012 993
f 993 1013 1014
f 993 1014 994
f 993 1012 1013
f 994 1014 995
f 995 1014 1015
f 995 1015 1010
f 996 1016 1040
f 996 1040 1017
f 996 1000 1016
f 997 1017 998
f 998 1017 1018
f 998 1018 1019
f 998 1019 999
f 999 1019 1020
f 999 1020 1001
f 1000 1010 1016
f 1001 1020 1021
f 1001 1021 1022
f 1002 1022 1003
f 1003 1022 1023
f 1003 1023 1024
f 1003 1024 1004
f 1004 1024 1025
f 1005 1007 1028
f 1005 1028 1063
f 1005 1063 1062
f 1005 1062 1093
f 1005 1093 1117
f 1005 1117 1116
f 1005 1116 1138
f 1005 1138 1156
f 1005 1156 1175
f 1005 1175 1191
f 1005 1191 1194
f 1005 1194 1193
f 1005 1193 1192
f 1005 1192 1176
f 1005 1176 1158
f 1005 1158 1140
f 1005 1140 1120
f 1005 1120 1119
f 1005 1119 1091
f 1005 1091 1060
f 1005 1060 1026
f 1006 1027 1028
f 1006 1028 1007
f 1008 1029 1011
f 1008 1011 1009
f 1010 1015 1030
f 1010 1030 1031
f 1010 1031 1032
f 1010 1032 1016
f 1011 1029 1033
f 1011 1033 1012
f 1012 1033 1034
f 1012 1034 1035
f 1012 1035 1036
f 1012 1036 1037
f 1012 1037 1038
f 1012 1038 1013
f 1013 1038 1014
f 1014 1038 1015
f 1015 1038 1030
f 1016 1039 1071
f 1016 1071 1040
f 1016 1032 1039
f 1017 1040 1041
f 1017 1041 1042
f 1017 1042 1043
f 1017 1043 1018
f 1018 1042 1044
f 1018 1044 1019
f 1018 1043 1042
f 1019 1044 1045
f 1019 1045 1046
f 1019 1046 1020
f 1020 1046 1021
f 1021 1047 1022
f 1021 1046 1048
f 1021 1048 1049
f 1021 1049 1050
f 1021 1050 1051
f 1021 1051 1052
f 1021 1052 1047
f 1022 1047 1053
f 1022 1053 1023
f 1023 1053 1024
f 1024 1054 1055
f 1024 1055 1056
f 1024 1056 1057
f 1024 1057 1025
f 1024 1053 1054
f 1025 1057 1088
f 1025 1088 1058
f 1026 1060 1059
f 1027 1061 1062
f 1027 1062 1063
f 1027 1063 1028
f 1029 1064 1035
f 1029 1035 1034
f 1029 1034 1033
f 1030 1038 1037
f 1030 1037 1031
f 1031 1037 1065
f 1031 1065 1032
f 1032 1066 1067
f 1032 1067 1068
f 1032 1068 1039
f 1032 1065 1066
f 1035 1064 1094
f 1035 1094 1069
f 1035 1069 1070
f 1035 1070 1036
f 1036 1070 1065
f 1036 1065 1037
f 1039 1068 1072
f 1039 1072 1103
f 1039 1103 1071
f 1040 1071 1073
f 1040 1073 1074
f 1040 1074 1042
f 1040 1042 1041
f 1042 1074 1075
f 1042 1075 1076
f 1042 1076 1044
f 1044 1076 1077
f 1044 1077 1078
f 1044 1078 1045
f 1045 1078 1046
f 1046 1078 1079
f 1046 1079 1048
f 1047 1052 1053
f 1048 1079 1049
f 1049 1079 1077
f 1049 1077 1080
f 1049 1080 1050
f 1050 1081 1082
f 1050 1082 1051
f 1050 1080 1081
f 1051 1082 1083
f 1051 1083 1052
f 1052 1083 1084
f 1052 1084 1054
f 1052 1054 1053
f 1054 1084 1055
f 1055 1084 1085
f 1055 1085 1086
f 1055 1086 1087
f 1055 1087 1088
f 1055 1088 1056
f 1056 1088 1057
f 1058 1088 1087
f 1058 1087 1086
f 1058 1086 1085
f 1058 1085 1115
f 1058 1115 1114
f 1058 1114 1113
f 1058 1113 1112
f 1058 1112 1137
f 1058 1137 1135
f 1058 1135 1154
f 1058 1154 1171
f 1058 1171 1187
f 1058 1187 1186
f 1058 1186 1199
f 1058 1199 1198
f 1058 1198 1197
f 1058 1197 1188
f 1058 1188 1172
f 1058 1172 1155
f 1058 1155 1138
f 1058 1138 1116
f 1058 1116 1089
f 1059 1060 1091
f 1059 1091 1092
f 1059 1092 1118
f 1059 1118 1090
f 1061 1093 1062
f 1065 1095 1096
f 1065 1096 1097
f 1065 1097 1066
f 1065 1070 1095
f 1066 1097 1096
f 1066 1096 1067
f 1067 1096 1098
f 1067 1098 1099
f 1067 1099 1100
f 1067 1100 1068
f 1068 1100 1101
f 1068 1101 1072
f 1069 1094 1102
f 1069 1102 1070
f 1070 1102 1095
f 1071 1103 1104
f 1071 1104 1105
f 1071 1105 1073
f 1072 1101 1103
f 1073 1105 1106
f 1073 1106 1074
f 1074 1106 1075
f 1075 1106 1107
f 1075 1107 1108
f 1075 1108 1077
f 1075 1077 1076
f 1077 1108 1080
f 1077 1079 1078
f 1080 1108 1109
f 1080 1109 1110
f 1080 1110 1111
f 1080 1111 1081
f 1081 1111 1082
f 1082 1111 1110
f 1082 1110 1112
f 1082 1112 1113
f 1082 1113 1114
f 1082 1114 1083
f 1083 1114 1115
f 1083 1115 1085
f 1083 1085 1084
f 1089 1116 1117
f 1090 1118 1102
f 1090 1102 1094
f 1091 1119 1092
f 1092 1119 1120
f 1092 1120 1121
f 1092 1121 1122
f 1092 1122 1118
f 1095 1102 1123
f 1095 1123 1096
f 1096 1122 1099
f 1096 1099 1098
f 1096 1123 1124
f 1096 1124 1122
f 1099 1122 1125
f 1099 1125 1126
f 1099 1126 1127
f 1099 1127 1101
f 1099 1101 1100
f 1101 1127 1128
f 1101 1128 1129
f 1101 1129 1103
f 1102 1118 1122
f 1102 1122 1124
f 1102 1124 1123
f 1103 1129 1146
f 1103 1146 1130
f 1103 1130 1105
f 1103 1105 1104
f 1105 1130 1131
f 1105 1131 1132
f 1105 1132 1106
f 1106 1133 1107
f 1106 1132 1133
f 1107 1133 1134
f 1107 1134 1109
f 1107 1109 1108
f 1109 1134 1135
f 1109 1135 1136
f 1109 1136 1110
f 1110 1136 1135
f 1110 1135 1137
f 1110 1137 1112
f 1120 1139 1121
f 1120 1140 1139
f 1121 1139 1126
f 1121 1126 1125
f 1121 1125 1122
f 1126 1141 1142
f 1126 1142 1127
f 1126 1139 1141
f 1127 1141 1143
f 1127 1143 1128
f 1127 1142 1141
f 1128 1143 1144
f 1128 1144 1129
f 1129 1144 1145
f 1129 1145 1146
f 1130 1146 1147
f 1130 1147 1148
f 1130 1148 1131
f 1131 1148 1132
f 1132 1148 1149
f 1132 1149 1133
f 1133 1150 1151
f 1133 1151 1134
f 1133 1149 1150
f 1134 1151 1152
f 1134 1152 1153
f 1134 1153 1154
f 1134 1154 1135
f 1138 1155 1174
f 1138 1174 1156
f 1139 1140 1158
f 1139 1158 1157
f 1139 1157 1141
f 1141 1157 1158
f 1141 1158 1176
f 1141 1176 1177
f 1141 1177 1159
f 1141 1159 1144
f 1141 1144 1143
f 1144 1159 1160
f 1144 1160 1145
f 1145 1160 1161
f 1145 1161 1146
f 1146 1161 1147
f 1147 1161 1162
f 1147 1162 1148
f 1148 1162 1163
f 1148 1163 1164
f 1148 1164 1165
f 1148 1165 1149
f 1149 1165 1164
f 1149 1164 1166
f 1149 1166 1150
f 1150 1166 1167
f 1150 1167 1168
f 1150 1168 1151
f 1151 1168 1169
f 1151 1169 1152
f 1152 1169 1170
f 1152 1170 1153
f 1153 1170 1171
f 1153 1171 1154
f 1155 1172 1173
f 1155 1173 1174
f 1156 1174 1175
f 1159 1177 1160
f 1160 1177 1178
f 1160 1178 1179
f 1160 1179 1180
f 1160 1180 1161
f 1161 1180 1181
f 1161 1181 1182
f 1161 1182 1164
f 1161 1164 1162
f 1162 1164 1163
f 1164 1182 1183
f 1164 1183 1184
f 1164 1184 1167
f 1164 1167 1166
f 1167 1184 1185
f 1167 1185 1169
f 1167 1169 1168
f 1169 1185 1186
f 1169 1186 1187
f 1169 1187 1171
f 1169 1171 1170
f 1172 1188 1189
f 1172 1189 1173
f 1173 1189 1196
f 1173 1196 1190
f 1173 1190 1174
f 1174 1190 1175
f 1175 1190 1191
f 1176 1192 1177
f 1177 1192 1178
f 1178 1192 1193
f 1178 1193 1194
f 1178 1194 1179
f 1179 1195 1180
f 1179 1194 1191
f 1179 1191 1190
f 1179 1190 1196
f 1179 1196 1195
f 1180 1195 1183
f 1180 1183 1181
f 1181 1183 1182
f 1183 1195 1196
f 1183 1196 1184
f 1184 1196 1185
f 1185 1196 1189
f 1185 1189 1197
f 1185 1197 1198
f 1185 1198 1199
f 1185 1199 1186
f 1188 1197 1189
